<?xml version="1.0" encoding="UTF-8" standalone="no"?>
<!-- Created with Inkscape (http://www.inkscape.org/) -->

<svg
   xmlns:dc="http://purl.org/dc/elements/1.1/"
   xmlns:cc="http://creativecommons.org/ns#"
   xmlns:rdf="http://www.w3.org/1999/02/22-rdf-syntax-ns#"
   xmlns:svg="http://www.w3.org/2000/svg"
   xmlns="http://www.w3.org/2000/svg"
   xmlns:sodipodi="http://sodipodi.sourceforge.net/DTD/sodipodi-0.dtd"
   xmlns:inkscape="http://www.inkscape.org/namespaces/inkscape"
   version="1.1"
   id="svg2"
   xml:space="preserve"
   width="150.22667"
   height="48.560001"
   viewBox="0 0 150.22667 48.560001"
   sodipodi:docname="CSU-Signature-Stacked-357-617-rev.svg"
   inkscape:version="0.92.4 5da689c313, 2019-01-14"><metadata
     id="metadata8"><rdf:RDF><cc:Work
         rdf:about=""><dc:format>image/svg+xml</dc:format><dc:type
           rdf:resource="http://purl.org/dc/dcmitype/StillImage" /><dc:title></dc:title></cc:Work></rdf:RDF></metadata><defs
     id="defs6" /><sodipodi:namedview
     pagecolor="#ffffff"
     bordercolor="#666666"
     borderopacity="1"
     objecttolerance="10"
     gridtolerance="10"
     guidetolerance="10"
     inkscape:pageopacity="0"
     inkscape:pageshadow="2"
     inkscape:window-width="1912"
     inkscape:window-height="2088"
     id="namedview4"
     showgrid="false"
     inkscape:zoom="4.6529688"
     inkscape:cx="75.543168"
     inkscape:cy="24.280001"
     inkscape:window-x="1920"
     inkscape:window-y="30"
     inkscape:window-maximized="0"
     inkscape:current-layer="g10" /><g
     id="g10"
     inkscape:groupmode="layer"
     inkscape:label="ink_ext_XXXXXX"
     transform="matrix(1.3333333,0,0,-1.3333333,0,48.56)"><g
       id="g12"
       transform="scale(0.1)"><path
         d="m 182.398,295.48 c -62.8,0 -113.8902,-51.054 -113.8902,-113.812 0,-62.809 51.0902,-113.9024 113.8902,-113.9024 62.754,0 113.809,51.0934 113.809,113.9024 0,62.758 -51.055,113.812 -113.809,113.812 z m 0,-232.187 c -65.261,0 -118.3589,53.105 -118.3589,118.375 0,65.219 53.0979,118.281 118.3589,118.281 65.219,0 118.278,-53.062 118.278,-118.281 0,-65.27 -53.059,-118.375 -118.278,-118.375"
         style="fill:#c8c754;fill-opacity:1;fill-rule:nonzero;stroke:none"
         id="path14"
         inkscape:connector-curvature="0" /><path
         d="m 182.398,295.48 c -62.8,0 -113.8902,-51.054 -113.8902,-113.812 0,-62.809 51.0902,-113.9024 113.8902,-113.9024 62.754,0 113.809,51.0934 113.809,113.9024 0,62.758 -51.055,113.812 -113.809,113.812 z m 0,-232.187 c -65.261,0 -118.3589,53.105 -118.3589,118.375 0,65.219 53.0979,118.281 118.3589,118.281 65.219,0 118.278,-53.062 118.278,-118.281 0,-65.27 -53.059,-118.375 -118.278,-118.375 z"
         style="fill:none;stroke:#c8c754;stroke-width:10.41699982;stroke-linecap:butt;stroke-linejoin:miter;stroke-miterlimit:10;stroke-dasharray:none;stroke-opacity:1"
         id="path16"
         inkscape:connector-curvature="0" /><path
         d="m 182.398,297.719 c -63.949,0 -116.1285,-52.117 -116.1285,-116.051 0,-63.949 52.1795,-116.1407 116.1285,-116.1407 63.946,0 116.047,52.1917 116.047,116.1407 0,63.934 -52.101,116.051 -116.047,116.051"
         style="fill:#0d4520;fill-opacity:1;fill-rule:nonzero;stroke:none"
         id="path18"
         inkscape:connector-curvature="0" /><path
         d="m 182.398,297.719 c -63.949,0 -116.1285,-52.117 -116.1285,-116.051 0,-63.949 52.1795,-116.1407 116.1285,-116.1407 63.946,0 116.047,52.1917 116.047,116.1407 0,63.934 -52.101,116.051 -116.047,116.051 z"
         style="fill:none;stroke:#0d4520;stroke-width:4.65044022;stroke-linecap:butt;stroke-linejoin:miter;stroke-miterlimit:10;stroke-dasharray:none;stroke-opacity:1"
         id="path20"
         inkscape:connector-curvature="0" /><path
         d="m 219.102,174.988 c -1.84,-1.121 -5.922,-0.562 -7.598,-3.371 -2.234,-3.676 -2.723,-4.226 -3.68,-3.91 -2.16,8.637 7.598,19.688 11.364,16.238 2.953,-2.629 3.039,-6.953 -0.086,-8.957 z m 2.242,14.164 c -2.242,1.203 -5.278,1.77 -7.996,0.797 -4.078,-1.121 -5.368,-4.875 -7.782,-8.234 -2.304,-3.52 -6.152,-6.004 -9.355,-7.289 -2.008,-4.633 1.449,-15.61 4.727,-20.645 1.835,-3.765 9.433,-12.886 7.843,-26.726 5.996,8.718 10.793,18 12.797,23.605 3.527,7.52 5.125,19.449 4.805,27.535 -0.481,3.922 -1.438,8.875 -5.039,10.957 z m -68.192,-17.535 c -1.601,2.809 -5.683,2.25 -7.605,3.371 -3.109,2.004 -2.957,6.328 -0.078,8.957 3.769,3.45 13.535,-7.601 11.375,-16.238 -0.965,-0.316 -1.442,0.234 -3.692,3.91 z m 10.571,-17.836 c 3.281,5.035 6.726,16.012 4.726,20.645 -3.203,1.285 -7.047,3.769 -9.375,7.289 -2.32,3.359 -3.672,7.113 -7.754,8.234 -2.718,0.973 -5.773,0.406 -8.007,-0.797 -3.598,-2.082 -4.473,-7.035 -5.04,-10.957 -0.234,-8.086 1.274,-20.015 4.793,-27.535 2.086,-5.605 6.887,-14.887 12.883,-23.605 -1.676,13.84 6.004,22.961 7.774,26.726 z m -31.211,51.543 c -4.25,-0.719 -5.043,-6.972 -1.852,-10.726 -2.949,0.32 -7.351,4.402 -17.758,1.129 -3.597,-1.129 -7.687,-2.571 -8.25,-7.207 -0.398,-3.446 4.246,-7.125 7.203,-9.293 3.047,-2.309 7.848,-2.477 10.329,-6.243 2.082,-3.191 3.761,-8.074 4.328,-12.48 0.957,-8.488 0.801,-19.129 6.722,-26.18 1.114,4.168 -1.929,13.531 -1.996,25.614 -0.097,4.484 -1.773,9.609 -4.406,12.98 4.879,0.391 4.957,-0.25 5.356,1.273 0.472,1.52 -0.477,3.2 -1.602,4.555 -3.52,4.082 -8.559,1.926 -13.051,3.371 -2.953,1.035 -7.508,2.555 -7.754,6.711 -0.156,2.805 8.649,3.449 8.649,3.449 7.035,-0.554 6.23,-4.558 11.113,-4.957 4.004,-0.328 5.687,3.91 6.973,6.477 1.922,4.082 4.156,12.808 -4.004,11.527 z M 261.195,188.52 c -0.558,4.636 -4.636,6.078 -8.234,7.207 -10.41,3.273 -14.809,-0.809 -17.848,-1.129 3.278,3.754 2.477,10.007 -1.836,10.726 -8.089,1.281 -5.855,-7.445 -3.925,-11.527 1.281,-2.567 2.875,-6.805 6.878,-6.477 4.883,0.399 4.153,4.403 11.208,4.957 0,0 8.8,-0.644 8.648,-3.449 -0.324,-4.156 -4.895,-5.676 -7.848,-6.711 -4.402,-1.445 -9.453,0.711 -13.05,-3.371 -1.11,-1.355 -2.004,-3.035 -1.61,-4.555 0.406,-1.523 0.578,-0.882 5.449,-1.273 -2.722,-3.371 -4.32,-8.496 -4.398,-12.98 -0.149,-12.083 -3.203,-21.446 -2,-25.614 5.848,7.051 5.762,17.692 6.726,26.18 0.559,4.406 2.157,9.289 4.325,12.48 2.476,3.766 7.207,3.934 10.316,6.243 2.965,2.168 7.598,5.847 7.199,9.293 z m -78.586,-27.469 v 0.012 c -0.031,0 -0.054,-0.004 -0.082,-0.004 l -0.074,0.004 v -0.012 c -3.824,-0.086 -5.894,-3.317 -9.445,-7.035 -6.16,-6.719 -18.813,-23.442 -9.606,-31.371 4.078,-3.524 9.45,-5.918 16.809,-3.676 1.84,1.273 0.797,5.039 -0.156,6.726 -3.446,4.477 -8.809,2.711 -10.328,4.953 -1.45,2.157 -0.485,3.852 0.394,4.957 1.281,1.598 3.363,1.204 5.125,0.723 3.125,-0.707 5.246,-2.015 7.207,-3.93 v -0.144 c 0.027,0.027 0.055,0.043 0.074,0.066 0.028,-0.023 0.051,-0.039 0.082,-0.066 v 0.148 c 1.883,1.914 4.086,3.227 7.204,3.926 1.683,0.481 3.839,0.875 5.046,-0.723 0.957,-1.105 1.836,-2.8 0.403,-4.957 -1.524,-2.242 -6.805,-0.476 -10.25,-4.953 -0.953,-1.687 -2.086,-5.453 -0.25,-6.726 7.453,-2.242 12.734,0.152 16.812,3.676 9.285,7.929 -3.359,24.652 -9.605,31.371 -3.465,3.714 -5.621,6.949 -9.36,7.035 z m 12.086,-44.324 c -4.07,-0.407 -8.527,-1.356 -12.121,-1.286 -3.597,-0.07 -8.062,0.879 -12.125,1.286 -0.652,0.074 -1.129,-0.407 -1.129,-0.407 -2.367,-5.058 11.25,-7.855 13.211,-7.761 1.965,-0.094 15.653,2.703 13.285,7.761 0,0 -0.484,0.481 -1.121,0.407 z m 57.91,-12.622 c -3.394,-1.359 -6.96,-1.925 -10.429,-0.32 -2.742,1.195 -4.446,3.922 -4.938,6.969 -0.629,4.476 1.871,9.762 4.043,13.285 3,5.031 9.871,13.84 17.789,19.68 11.239,8.328 19.075,10.648 16.168,12.566 -2.023,1.363 -12.683,-4.484 -14.789,-5.605 -11.965,-6.16 -28.465,-24.004 -30.402,-37.215 C 228.516,103.063 240.48,95.6289 248.641,98.4258 222.113,75.8281 192.707,74.9766 182.438,74.7383 v -0.0039 l -0.04,0.0039 -0.031,-0.0039 -0.015,0.0039 c -10.325,0.2383 -39.825,1.0898 -66.278,23.6875 8.168,-2.7969 20.129,4.6372 18.594,15.0392 -1.941,13.211 -18.512,31.055 -30.391,37.215 -2.097,1.121 -12.777,6.968 -14.7965,5.605 -2.9063,-1.918 4.9258,-4.238 16.1715,-12.566 7.922,-5.84 14.715,-14.649 17.7,-19.68 2.265,-3.523 4.769,-8.809 4.125,-13.285 -0.493,-3.047 -2.262,-5.774 -4.938,-6.969 -3.476,-1.605 -7.023,-1.039 -10.504,0.32 -5.332,1.926 -9.617,6.083 -13.3358,11.125 -7.0273,9.528 -13.8984,20.489 -17.3828,32.09 2.9883,-6.644 21.9066,-34.414 30.3166,-34.812 8.64,-0.481 -8.41,22.566 -20.133,32.168 -2.8281,2.324 -6.0625,5.047 -6.6992,9.375 -0.4961,3.125 1.125,5.199 4.1992,5.355 4.6914,0.164 16.895,-6.156 17.051,-5.922 -21.1721,38.012 11.234,57.219 -2.18,65.547 -4.6952,2.969 -14.621,0 -20.0468,-0.801 49.8828,29.458 58.5978,0.079 73.6368,-13.437 2.344,-2.168 12.93,0 14.953,2.477 2.672,3.203 7.996,14.73 1.938,22.332 -8.719,11.039 -44.942,43.617 -77.9184,14.804 15.9964,25.91 53.3394,45.016 86.0044,44.102 32.671,0.914 69.765,-18.192 85.847,-44.102 -33.07,28.813 -69.191,-3.765 -78.008,-14.804 -5.972,-7.602 -0.718,-19.129 1.946,-22.332 2.097,-2.477 12.683,-4.645 15.031,-2.477 15.035,13.516 23.769,42.895 73.637,13.437 -5.411,0.801 -15.438,3.77 -20.036,0.801 -13.433,-8.328 18.903,-27.535 -2.191,-65.547 0.164,-0.234 12.371,6.086 17.055,5.922 3.07,-0.156 4.691,-2.23 4.203,-5.355 -0.645,-4.328 -3.957,-7.051 -6.707,-9.375 -11.727,-9.602 -28.774,-32.649 -20.211,-32.168 8.484,0.398 27.406,28.168 30.394,34.812 -3.476,-11.601 -10.418,-22.562 -17.382,-32.09 -3.719,-5.042 -7.993,-9.199 -13.411,-11.125 z m -70.21,189.485 c -61.704,0 -111.9653,-50.27 -111.9653,-111.969 0,-61.625 50.2613,-111.9647 111.9653,-111.9647 61.621,0 111.886,50.3397 111.886,111.9647 0,61.699 -50.265,111.969 -111.886,111.969"
         style="fill:#ffffff;fill-opacity:1;fill-rule:nonzero;stroke:none"
         id="path22"
         inkscape:connector-curvature="0" /><path
         d="M 248.633,98.4258 C 222.113,75.8281 192.699,74.9766 182.438,74.7383 v -0.0039 l -0.04,0.0039 -0.031,-0.0039 -0.015,0.0039 c -10.325,0.2383 -39.825,1.0898 -66.278,23.6875"
         style="fill:none;stroke:#ffffff;stroke-width:1.86018002;stroke-linecap:butt;stroke-linejoin:miter;stroke-miterlimit:10;stroke-dasharray:none;stroke-opacity:1"
         id="path24"
         inkscape:connector-curvature="0" /><path
         d="m 96.4336,244.406 c 15.9964,25.91 53.3324,45.016 86.0044,44.102 32.671,0.914 69.765,-18.192 85.843,-44.102"
         style="fill:none;stroke:#ffffff;stroke-width:1.86018002;stroke-linecap:butt;stroke-linejoin:miter;stroke-miterlimit:10;stroke-dasharray:none;stroke-opacity:1"
         id="path26"
         inkscape:connector-curvature="0" /><path
         d="M 361.211,194.379 H 380 c 8.34,0 12.938,4.168 12.938,11.742 v 8.809 h -12.45 v -8.274 c 0,-0.769 -0.156,-1.601 -1.996,-1.601 h -15.855 c -1.672,0 -1.907,0.773 -1.907,1.601 v 32.129 c 0,0.832 0.235,1.594 1.907,1.594 h 15.855 c 1.84,0 1.996,-0.82 1.996,-1.594 V 230.5 h 12.45 v 8.813 c 0,7.574 -4.598,11.746 -12.938,11.746 h -18.789 c -8.34,0 -12.93,-4.172 -12.93,-11.746 v -33.192 c 0,-7.574 4.59,-11.742 12.93,-11.742"
         style="fill:#ffffff;fill-opacity:1;fill-rule:nonzero;stroke:none"
         id="path28"
         inkscape:connector-curvature="0" /><path
         d="m 417.395,206.656 v 32.129 c 0,0.832 0.234,1.594 1.91,1.594 h 16.941 c 1.84,0 1.996,-0.82 1.996,-1.594 v -32.129 c 0,-0.769 -0.156,-1.601 -1.996,-1.601 h -16.941 c -1.676,0 -1.91,0.773 -1.91,1.601 z m 0.484,-12.277 h 19.875 c 8.34,0 12.937,4.168 12.937,11.742 v 33.192 c 0,7.574 -4.597,11.746 -12.937,11.746 h -19.875 c -8.344,0 -12.938,-4.172 -12.938,-11.746 v -33.192 c 0,-7.574 4.594,-11.742 12.938,-11.742"
         style="fill:#ffffff;fill-opacity:1;fill-rule:nonzero;stroke:none"
         id="path30"
         inkscape:connector-curvature="0" /><path
         d="m 501.734,205.055 h -26.507 v 46.004 h -12.442 v -56.68 h 38.949 v 10.676"
         style="fill:#ffffff;fill-opacity:1;fill-rule:nonzero;stroke:none"
         id="path32"
         inkscape:connector-curvature="0" /><path
         d="m 544.336,238.785 v -32.129 c 0,-0.769 -0.148,-1.601 -1.992,-1.601 h -16.942 c -1.679,0 -1.914,0.773 -1.914,1.601 v 32.129 c 0,0.832 0.235,1.594 1.914,1.594 h 16.942 c 1.844,0 1.992,-0.82 1.992,-1.594 z m 12.453,-32.664 v 33.192 c 0,7.574 -4.594,11.746 -12.934,11.746 h -19.878 c -8.34,0 -12.938,-4.172 -12.938,-11.746 v -33.192 c 0,-7.574 4.598,-11.742 12.938,-11.742 h 19.878 c 8.34,0 12.934,4.168 12.934,11.742"
         style="fill:#ffffff;fill-opacity:1;fill-rule:nonzero;stroke:none"
         id="path34"
         inkscape:connector-curvature="0" /><path
         d="m 581.324,240.457 h 17.434 c 1.68,0 1.914,-0.773 1.914,-1.602 v -11.464 c 0,-0.832 -0.234,-1.602 -1.914,-1.602 h -17.434 z m 23.258,-24.644 c 5.523,1.332 8.535,5.289 8.535,11.273 v 12.227 c 0,7.574 -4.594,11.746 -12.933,11.746 h -31.305 v -56.68 h 12.445 v 20.965 h 9.996 l 10.821,-20.965 h 13.593 l -11.152,21.434"
         style="fill:#ffffff;fill-opacity:1;fill-rule:nonzero;stroke:none"
         id="path36"
         inkscape:connector-curvature="0" /><path
         d="m 644.746,218.473 6.227,18.465 6.226,-18.465 z m -3.574,-10.672 h 19.601 l 4.528,-13.422 h 13.637 l -20.93,56.68 h -13.656 l -20.836,-56.68 h 13.132 l 4.524,13.422"
         style="fill:#ffffff;fill-opacity:1;fill-rule:nonzero;stroke:none"
         id="path38"
         inkscape:connector-curvature="0" /><path
         d="m 701.027,240.379 h 18.102 c 1.68,0 1.914,-0.762 1.914,-1.594 v -32.129 c 0,-0.828 -0.234,-1.601 -1.914,-1.601 h -18.102 z m 19.532,10.68 h -31.981 v -56.68 h 31.981 c 8.336,0 12.929,4.168 12.929,11.742 v 33.192 c 0,7.574 -4.593,11.746 -12.929,11.746"
         style="fill:#ffffff;fill-opacity:1;fill-rule:nonzero;stroke:none"
         id="path40"
         inkscape:connector-curvature="0" /><path
         d="m 757.777,206.656 v 32.129 c 0,0.832 0.239,1.594 1.911,1.594 h 16.945 c 1.844,0 2,-0.82 2,-1.594 v -32.129 c 0,-0.828 -0.242,-1.601 -2,-1.601 h -16.945 c -1.672,0 -1.911,0.773 -1.911,1.601 z m 0.485,-12.277 h 19.883 c 8.339,0 12.929,4.168 12.929,11.742 v 33.192 c 0,7.574 -4.59,11.746 -12.929,11.746 h -19.883 c -8.344,0 -12.938,-4.172 -12.938,-11.746 v -33.192 c 0,-7.574 4.594,-11.742 12.938,-11.742"
         style="fill:#ffffff;fill-opacity:1;fill-rule:nonzero;stroke:none"
         id="path42"
         inkscape:connector-curvature="0" /><path
         d="m 853.809,226.902 -15.586,3.094 c -2.762,0.578 -2.996,1.113 -2.996,2.598 v 6.344 c 0,0.804 0.156,1.675 1.992,1.675 h 14.511 c 1.59,0 1.915,-0.675 1.915,-1.675 v -6.551 h 12.273 v 6.926 c 0,7.574 -4.59,11.746 -12.93,11.746 h -17.273 c -8.34,0 -12.93,-4.172 -12.93,-11.746 v -7.997 c 0,-8.25 6.258,-10.656 13.028,-12.027 l 15.593,-3.176 c 2.696,-0.558 2.989,-1.008 2.989,-2.523 v -7.082 c 0,-1.012 -0.321,-1.688 -1.915,-1.688 h -15.683 c -1.582,0 -1.914,0.676 -1.914,1.688 v 7.144 h -12.274 v -7.531 c 0,-7.574 4.59,-11.742 12.938,-11.742 h 18.371 c 8.328,0 12.93,4.168 12.93,11.742 v 8.754 c 0,8.277 -6.27,10.668 -13.039,12.027"
         style="fill:#ffffff;fill-opacity:1;fill-rule:nonzero;stroke:none"
         id="path44"
         inkscape:connector-curvature="0" /><path
         d="m 920.918,251.059 h -45.496 v -10.602 h 16.523 v -46.078 h 12.45 v 46.078 h 16.523 v 10.602"
         style="fill:#ffffff;fill-opacity:1;fill-rule:nonzero;stroke:none"
         id="path46"
         inkscape:connector-curvature="0" /><path
         d="m 952.844,218.473 h -12.453 l 6.222,18.465 z m -12.852,32.586 -20.832,-56.68 h 13.125 l 4.531,13.422 h 19.59 l 4.532,-13.422 h 13.644 l -20.93,56.68 h -13.66"
         style="fill:#ffffff;fill-opacity:1;fill-rule:nonzero;stroke:none"
         id="path48"
         inkscape:connector-curvature="0" /><path
         d="m 972.656,240.457 h 16.524 v -46.078 h 12.44 v 46.078 h 16.53 v 10.602 h -45.494 v -10.602"
         style="fill:#ffffff;fill-opacity:1;fill-rule:nonzero;stroke:none"
         id="path50"
         inkscape:connector-curvature="0" /><path
         d="m 1067.94,240.379 v 10.68 h -41.04 v -56.68 h 41.04 v 10.676 h -28.6 v 13 h 23.57 v 10.527 h -23.57 v 11.797 h 28.6"
         style="fill:#ffffff;fill-opacity:1;fill-rule:nonzero;stroke:none"
         id="path52"
         inkscape:connector-curvature="0" /><path
         d="m 381.242,122.398 c 0,-0.828 -0.234,-1.601 -1.914,-1.601 h -16.613 c -1.75,0 -1.996,0.773 -1.996,1.601 v 44.403 h -12.438 v -44.938 c 0,-7.574 4.59,-11.75 12.93,-11.75 h 19.547 c 8.336,0 12.93,4.176 12.93,11.75 v 44.938 h -12.446 v -44.403"
         style="fill:#ffffff;fill-opacity:1;fill-rule:nonzero;stroke:none"
         id="path54"
         inkscape:connector-curvature="0" /><path
         d="m 441.758,130.496 -23.574,36.305 h -12.407 v -56.688 h 11.778 v 37.379 l 24.332,-37.379 h 11.738 v 56.688 h -11.867 v -36.305"
         style="fill:#ffffff;fill-opacity:1;fill-rule:nonzero;stroke:none"
         id="path56"
         inkscape:connector-curvature="0" /><path
         d="m 465.715,110.113 h 12.445 v 56.688 h -12.445 v -56.688"
         style="fill:#ffffff;fill-opacity:1;fill-rule:nonzero;stroke:none"
         id="path58"
         inkscape:connector-curvature="0" /><path
         d="m 514.449,125.258 -12.965,41.543 h -13.543 l 19.696,-56.688 h 13.355 l 19.707,56.688 h -13.211 l -13.039,-41.543"
         style="fill:#ffffff;fill-opacity:1;fill-rule:nonzero;stroke:none"
         id="path60"
         inkscape:connector-curvature="0" /><path
         d="m 550.379,110.113 h 41.047 v 10.684 h -28.602 v 13 h 23.574 v 10.527 h -23.574 v 11.797 h 28.602 v 10.68 h -41.047 v -56.688"
         style="fill:#ffffff;fill-opacity:1;fill-rule:nonzero;stroke:none"
         id="path62"
         inkscape:connector-curvature="0" /><path
         d="m 615.461,156.199 h 17.43 c 1.675,0 1.91,-0.773 1.91,-1.601 v -11.465 c 0,-0.832 -0.235,-1.602 -1.91,-1.602 h -17.43 z m 31.785,-13.371 v 12.227 c 0,7.574 -4.59,11.746 -12.933,11.746 h -31.297 v -56.688 h 12.445 v 20.973 h 9.992 l 10.817,-20.973 h 13.597 l -11.156,21.442 c 5.527,1.332 8.535,5.289 8.535,11.273"
         style="fill:#ffffff;fill-opacity:1;fill-rule:nonzero;stroke:none"
         id="path64"
         inkscape:connector-curvature="0" /><path
         d="m 689.781,142.645 -15.582,3.093 c -2.761,0.578 -2.996,1.11 -2.996,2.598 v 6.344 c 0,0.804 0.156,1.675 1.992,1.675 h 14.512 c 1.59,0 1.918,-0.675 1.918,-1.675 v -6.551 h 12.27 v 6.926 c 0,7.574 -4.59,11.746 -12.93,11.746 h -17.277 c -8.336,0 -12.93,-4.172 -12.93,-11.746 v -7.996 c 0,-8.246 6.262,-10.657 13.031,-12.028 l 15.59,-3.176 c 2.699,-0.558 2.992,-1.007 2.992,-2.523 v -7.09 c 0,-1.004 -0.32,-1.679 -1.906,-1.679 h -15.692 c -1.585,0 -1.91,0.675 -1.91,1.679 v 7.156 h -12.277 v -7.535 c 0,-7.574 4.59,-11.75 12.934,-11.75 h 18.371 c 8.339,0 12.929,4.176 12.929,11.75 v 8.754 c 0,8.278 -6.261,10.668 -13.039,12.028"
         style="fill:#ffffff;fill-opacity:1;fill-rule:nonzero;stroke:none"
         id="path66"
         inkscape:connector-curvature="0" /><path
         d="m 714.504,110.113 h 12.445 v 56.688 h -12.445 v -56.688"
         style="fill:#ffffff;fill-opacity:1;fill-rule:nonzero;stroke:none"
         id="path68"
         inkscape:connector-curvature="0" /><path
         d="m 735.543,156.199 h 16.52 v -46.086 h 12.449 v 46.086 h 16.523 v 10.602 h -45.492 v -10.602"
         style="fill:#ffffff;fill-opacity:1;fill-rule:nonzero;stroke:none"
         id="path70"
         inkscape:connector-curvature="0" /><path
         d="m 812.188,142.18 -13.211,24.621 h -13.645 l 20.547,-36.797 v -19.891 h 12.441 v 19.891 l 20.559,36.797 H 825.391 L 812.188,142.18"
         style="fill:#ffffff;fill-opacity:1;fill-rule:nonzero;stroke:none"
         id="path72"
         inkscape:connector-curvature="0" /></g></g></svg>