<?xml version="1.0" encoding="UTF-8" standalone="no"?>
<!-- Created with Inkscape (http://www.inkscape.org/) -->

<svg
   xmlns:dc="http://purl.org/dc/elements/1.1/"
   xmlns:cc="http://creativecommons.org/ns#"
   xmlns:rdf="http://www.w3.org/1999/02/22-rdf-syntax-ns#"
   xmlns:svg="http://www.w3.org/2000/svg"
   xmlns="http://www.w3.org/2000/svg"
   xmlns:sodipodi="http://sodipodi.sourceforge.net/DTD/sodipodi-0.dtd"
   xmlns:inkscape="http://www.inkscape.org/namespaces/inkscape"
   version="1.1"
   id="svg2"
   xml:space="preserve"
   width="419.61334"
   height="178.67999"
   viewBox="0 0 419.61334 178.67999"
   sodipodi:docname="Stevens-Official-PMSColor-R.svg"
   inkscape:version="0.92.4 5da689c313, 2019-01-14"><metadata
     id="metadata8"><rdf:RDF><cc:Work
         rdf:about=""><dc:format>image/svg+xml</dc:format><dc:type
           rdf:resource="http://purl.org/dc/dcmitype/StillImage" /><dc:title></dc:title></cc:Work></rdf:RDF></metadata><defs
     id="defs6" /><sodipodi:namedview
     pagecolor="#ffffff"
     bordercolor="#666666"
     borderopacity="1"
     objecttolerance="10"
     gridtolerance="10"
     guidetolerance="10"
     inkscape:pageopacity="0"
     inkscape:pageshadow="2"
     inkscape:window-width="1272"
     inkscape:window-height="2088"
     id="namedview4"
     showgrid="false"
     inkscape:zoom="1.320797"
     inkscape:cx="211.32091"
     inkscape:cy="89.339996"
     inkscape:window-x="1384"
     inkscape:window-y="30"
     inkscape:window-maximized="0"
     inkscape:current-layer="g10" /><g
     id="g10"
     inkscape:groupmode="layer"
     inkscape:label="ink_ext_XXXXXX"
     transform="matrix(1.3333333,0,0,-1.3333333,0,178.68)"><g
       id="g12"
       transform="scale(0.1)"><path
         d="m 421.848,1079.81 -0.493,0.31 -212.285,-91.647 0.957,-0.321 -8.804,-3.664 -0.879,0.328 L 0,898.52 v -84.344 c 0,-47.887 33.5859,-79.012 82.0898,-94.543 9.1133,-3.641 23.3202,-7.262 38.3082,-10.711 v 10.773 c -59.8902,36.586 -79.2183,106.817 -9.609,138.754 l 310.41,122.317 0.051,4.964 0.598,0.336 v 85.424 0 5.44 2.88"
         style="fill:#b20d35;fill-opacity:1;fill-rule:nonzero;stroke:none"
         id="path14"
         inkscape:connector-curvature="0" /><path
         d="M 719.797,341.594 C 718.02,340.355 421.355,130.711 421.355,130.711 L 414.602,135.34 413.77,5.42969 421.355,0 c 0,0 -3.171,2.80859 318.008,239.789 0.305,0.172 253.598,173.34 -54.363,262.063 V 478.18 c 122.52,-63.321 53.535,-123.621 34.797,-136.586"
         style="fill:#bbbaba;fill-opacity:1;fill-rule:nonzero;stroke:none"
         id="path16"
         inkscape:connector-curvature="0" /><path
         d="M 423.145,547.566 C 337.637,560.277 208.086,596.32 121.516,628.27 V 362.547 L 420.637,163.891 721.172,374.602 v 105.089 10.118 c -64.121,25.746 -188.301,41.25 -299.324,57.757"
         style="fill:#b20d35;fill-opacity:1;fill-rule:nonzero;stroke:none"
         id="path18"
         inkscape:connector-curvature="0" /><path
         d="m 750.203,595.574 c 32.043,-11.379 65.422,-26.601 92.5,-47.109 V 898.52 l -420.828,181.29 -0.676,-99.044 0.156,0.047 328.442,-131.938 V 601.281 c 0,-1.918 0.164,-3.808 0.406,-5.707"
         style="fill:#bbbaba;fill-opacity:1;fill-rule:nonzero;stroke:none"
         id="path20"
         inkscape:connector-curvature="0" /><path
         d="m 92.9609,354.965 v 215.703 c 0,17.336 0.8204,49.078 0.8204,65.566 C 67.5391,645.824 19.6875,676.844 0,708.445 V 300.441 L 421.355,0 V 130.711 L 92.9609,354.965"
         style="fill:#b20d35;fill-opacity:1;fill-rule:nonzero;stroke:none"
         id="path22"
         inkscape:connector-curvature="0" /><path
         d="m 561.973,1121.59 v 0.32 l -0.164,-0.17 v -0.72 h 0.671 l -0.507,0.57"
         style="fill:#b20d35;fill-opacity:1;fill-rule:nonzero;stroke:none"
         id="path24"
         inkscape:connector-curvature="0" /><path
         d="m 279.355,409.684 v 4.929 h 11.583 c 3.039,0 5.617,2.266 5.617,5.117 v 57.235 c 0,2.883 -3.032,5.172 -7.231,5.172 v 3.492 h 25.473 V 419.73 c 0,-2.851 2.547,-5.117 5.586,-5.117 h 11.472 v -4.929 h -52.5"
         style="fill:#ffffff;fill-opacity:1;fill-rule:nonzero;stroke:none"
         id="path26"
         inkscape:connector-curvature="0" /><path
         d="m 387.227,474.906 c 0,3.699 -3.309,6.762 -7.332,6.762 -4.016,0 -7.266,-3.063 -7.266,-6.762 v -12.84 c 0,-3.722 3.25,-6.738 7.266,-6.738 4.023,0 7.332,3.016 7.332,6.738 z m 2.265,-33.566 c 0,4.844 -4.336,8.871 -9.597,8.871 -5.254,0 -9.59,-4.027 -9.59,-8.871 v -18.824 c 0,-4.848 4.336,-8.891 9.59,-8.891 5.261,0 9.597,4.043 9.597,8.891 z m -9.597,-32.805 c -15.825,0 -28.579,11.715 -28.579,23.313 0,9.386 6.555,17.152 15.688,21.429 -6.113,3.274 -10.09,8.789 -10.09,15.246 0,9.997 10.332,18.192 22.981,18.192 12.671,0 23.015,-8.195 23.015,-18.192 0,-6.457 -4.289,-12.3 -10.222,-15.351 9.109,-4.274 15.789,-11.938 15.789,-21.324 0,-11.598 -12.774,-23.313 -28.582,-23.313"
         style="fill:#ffffff;fill-opacity:1;fill-rule:nonzero;stroke:none"
         id="path28"
         inkscape:connector-curvature="0" /><path
         d="m 451.555,409.684 h -19.297 l 28.426,70.875 h -22.879 c -3.02,0 -5.696,-2.301 -5.696,-5.086 h -3.515 v 10.156 h 53.679 l -30.718,-75.945"
         style="fill:#ffffff;fill-opacity:1;fill-rule:nonzero;stroke:none"
         id="path30"
         inkscape:connector-curvature="0" /><path
         d="m 539.949,470.641 c 0,5.839 -5.144,10.839 -10.984,10.839 -5.293,0 -10.664,-4.789 -10.664,-10.839 v -45.297 c 0,-5.879 5.371,-10.926 10.664,-10.926 5.742,0 10.984,5.047 10.984,10.926 z m -10.984,-61.86 c -15.684,0 -28.953,11.383 -28.953,25.367 v 27.579 c 0,13.972 13.484,25.371 28.953,25.371 15.84,0 29.25,-11.399 29.25,-25.371 v -27.579 c 0,-13.984 -13.313,-25.367 -29.25,-25.367"
         style="fill:#ffffff;fill-opacity:1;fill-rule:nonzero;stroke:none"
         id="path32"
         inkscape:connector-curvature="0" /><path
         d="m 426.523,321.359 c -8.093,8.95 -12.343,20.559 -12.605,32.289 h -0.625 -0.559 c -0.261,-11.73 -4.531,-23.339 -12.617,-32.289 -8.105,-8.961 -18.699,-13.597 -29.402,-13.91 v -0.66 -0.539 c 10.703,-0.32 21.297,-4.93 29.402,-13.898 8.086,-8.922 12.356,-20.614 12.617,-32.282 0.246,0 0.411,0 0.633,0 0.102,0 0.332,0 0.5,0 0.313,11.668 4.563,23.36 12.656,32.282 8.067,8.968 18.711,13.578 29.297,13.898 v 0.609 0.59 c -10.586,0.313 -21.23,4.949 -29.297,13.91"
         style="fill:#ffffff;fill-opacity:1;fill-rule:nonzero;stroke:none"
         id="path34"
         inkscape:connector-curvature="0" /><path
         d="m 122.91,951.5 -2.512,-1.176"
         style="fill:#b20d35;fill-opacity:1;fill-rule:nonzero;stroke:none"
         id="path36"
         inkscape:connector-curvature="0" /><path
         d="m 190.637,924.266 -36.594,11.73 -3.816,-69.812 -3.633,-2.012 -1.379,3.254 -7.918,68.57 15.301,5.555 41.511,-14.356 z m 9.707,60.55 -168.8518,-72.718 v -26.395 l 193.5738,-49.223 12.317,124.797 2.187,9.95 -39.226,13.589"
         style="fill:#b20d35;fill-opacity:1;fill-rule:nonzero;stroke:none"
         id="path38"
         inkscape:connector-curvature="0" /><path
         d="m 727.793,815.504 -98.367,33.797 -10.903,24.617 7.09,11.641 -55.027,20.855 -4.856,121.036 7.793,4.55 -0.73,13.68 -9.133,3.78 -65.34,81.29 0.125,8.85 9.746,0.97 -19.968,26.23 -17.989,-4.74 v 7.75 l -9.738,5.59 0.188,30.01 -23.664,11.85 h -30.411 l 0.852,0.39 30.918,-0.39 19.121,-7.43 -33.125,107.8 -8.555,0.09 -31.328,-110.5 15.906,7.23 -17.41,-12.78 v -27.53 l -7.058,-4.33 v -9.64 l -0.317,0.15 -21.179,3.99 -20,-26.19 9.785,-0.98 v -19.7 l -67.559,-82.8 0.235,-8.87 6.652,-4.6 -0.363,-23.08 -43.614,-19.914 -30.5,10.297 -88.355,-38.051 V 708.609 c 35.137,-10.031 138.64,-31.925 319.012,-52.453 204.394,-23.273 286.043,-53.414 286.043,-53.414 l 2.023,-0.617 v 213.379"
         style="fill:#ffffff;fill-opacity:1;fill-rule:nonzero;stroke:none"
         id="path40"
         inkscape:connector-curvature="0" /><path
         d="m 478.137,797.516 -25.571,6.601 -0.211,72.141 c 0,0 3.336,14.215 13.778,23.476 0,0 11.805,-16.851 11.805,-29.39 0,-8.289 0.199,-72.828 0.199,-72.828"
         style="fill:#b20d35;fill-opacity:1;fill-rule:nonzero;stroke:none"
         id="path42"
         inkscape:connector-curvature="0" /><path
         d="m 515.891,787.855 -23.481,6.024 v 72.656 c 0,0 2.153,12.086 12.578,21.336 0,0 10.903,-14.926 10.903,-27.504 v -72.512"
         style="fill:#b20d35;fill-opacity:1;fill-rule:nonzero;stroke:none"
         id="path44"
         inkscape:connector-curvature="0" /><path
         d="m 548.516,779.086 -19.688,5.227 v 72.015 c 0,0 -0.223,9.11 10.449,17.567 0,0 7.332,-10.036 9.192,-22.336 0.047,-0.469 0.047,-0.918 0.047,-1.371 v -71.102"
         style="fill:#b20d35;fill-opacity:1;fill-rule:nonzero;stroke:none"
         id="path46"
         inkscape:connector-curvature="0" /><path
         d="m 475.742,948.254 -25.605,8.863 v 70.353 c 0,0 2.453,16.74 13.75,23.46 0,0 11.855,-16.83 11.855,-29.4 v -73.276"
         style="fill:#b20d35;fill-opacity:1;fill-rule:nonzero;stroke:none"
         id="path48"
         inkscape:connector-curvature="0" /><path
         d="m 510.652,935.996 -23.433,8.031 v 71.593 c 0,0 2.136,12.07 12.527,21.33 0,0 10.906,-14.95 10.906,-27.5 v -73.454"
         style="fill:#b20d35;fill-opacity:1;fill-rule:nonzero;stroke:none"
         id="path50"
         inkscape:connector-curvature="0" /><path
         d="m 541.809,924.891 -19.629,6.968 v 72.311 c 0,0 -0.266,9.09 10.425,17.54 0,0 7.344,-10.03 9.204,-22.331 0.046,-0.469 0,-0.899 0,-1.375 v -73.113"
         style="fill:#b20d35;fill-opacity:1;fill-rule:nonzero;stroke:none"
         id="path52"
         inkscape:connector-curvature="0" /><path
         d="m 513.281,740.465 c 0,-5.02 -3.515,-9.145 -7.82,-9.145 -4.316,0 -7.832,4.125 -7.832,9.145 0,5.019 3.516,9.109 7.832,9.109 4.305,0 7.82,-4.09 7.82,-9.109"
         style="fill:#b20d35;fill-opacity:1;fill-rule:nonzero;stroke:none"
         id="path54"
         inkscape:connector-curvature="0" /><path
         d="m 341.516,755.602 c -3.848,0 -6.946,3.785 -6.946,8.41 0,4.644 3.098,8.375 6.946,8.375 3.855,0 6.961,-3.731 6.961,-8.375 0,-4.625 -3.106,-8.41 -6.961,-8.41 m 12.097,-3.325 c -2.597,18.317 -11.445,27.727 -11.445,27.727 C 329.063,770.145 329.16,754.5 329.16,754.5 l 24.688,-3.848 c 0,0.555 -0.188,1.082 -0.235,1.625"
         style="fill:#b20d35;fill-opacity:1;fill-rule:nonzero;stroke:none"
         id="path56"
         inkscape:connector-curvature="0" /><path
         d="m 382.141,747.449 c -3.645,0 -6.606,3.563 -6.606,7.953 0,4.411 2.961,7.973 6.606,7.973 3.613,0 6.582,-3.562 6.582,-7.973 0,-4.39 -2.969,-7.953 -6.582,-7.953 m 11.464,-3.168 c -2.484,17.379 -10.863,26.313 -10.863,26.313 -12.488,-9.375 -12.344,-24.219 -12.344,-24.219 l 23.418,-3.633 c 0,0.535 -0.164,1.02 -0.211,1.539"
         style="fill:#b20d35;fill-opacity:1;fill-rule:nonzero;stroke:none"
         id="path58"
         inkscape:connector-curvature="0" /><path
         d="m 677.871,746.063 -105.344,25.996 0.942,3.711 109.629,-27.188 -5.227,-2.519"
         style="fill:#b20d35;fill-opacity:1;fill-rule:nonzero;stroke:none"
         id="path60"
         inkscape:connector-curvature="0" /><path
         d="m 726.211,709.391 -47.566,11.23 -0.129,-3.699 47.695,-11.227 v 3.696"
         style="fill:#b20d35;fill-opacity:1;fill-rule:nonzero;stroke:none"
         id="path62"
         inkscape:connector-curvature="0" /><path
         d="m 672.695,741.906 -96.882,24.313 0.671,2.75 99.895,-24.942 -3.684,-2.121"
         style="fill:#b20d35;fill-opacity:1;fill-rule:nonzero;stroke:none"
         id="path64"
         inkscape:connector-curvature="0" /><path
         d="m 433.777,812.059 -0.125,-11.282 144.278,-34.855 -0.215,10.84 -143.938,35.297"
         style="fill:#b20d35;fill-opacity:1;fill-rule:nonzero;stroke:none"
         id="path66"
         inkscape:connector-curvature="0" /><path
         d="m 145.215,760.109 c 0,0 -1.301,18.704 21.953,28.637 0,0 22.742,-13.266 21.328,-36.492 l -43.281,7.855"
         style="fill:#b20d35;fill-opacity:1;fill-rule:nonzero;stroke:none"
         id="path68"
         inkscape:connector-curvature="0" /><path
         d="m 724.59,649.484 c -1.348,13.36 -10.985,24.969 -10.985,24.969 -9.777,-4.031 -11.757,-16.469 -12.628,-20.562 l 23.613,-4.407"
         style="fill:#b20d35;fill-opacity:1;fill-rule:nonzero;stroke:none"
         id="path70"
         inkscape:connector-curvature="0" /><path
         d="m 604.512,777.23 -17.285,61.864 h 15.586 l 27.207,-9.614 -1.497,-1.148 -24.863,6.074 z m 9.289,97.856 4.512,7.559 -48.887,17.839 7.422,-123.312 90.379,-22.168 -53.426,120.082"
         style="fill:#b20d35;fill-opacity:1;fill-rule:nonzero;stroke:none"
         id="path72"
         inkscape:connector-curvature="0" /><path
         d="m 393.293,953.938 32.559,-120.27 -4.036,264.052 -3.398,8.94 -138.191,-71.44 v -8.13 l 6.304,-3.16 -0.047,-24.325 5.45,2.495 h 4.011 l 13.762,-4.983 c 0.574,2.602 3.809,16.363 8.008,20.373 4.59,-1.92 10.578,-18.244 10.808,-22.615 l 0.176,-4.625 12.817,-4.637 -0.864,20.367 c -0.457,8.46 4.36,23.41 8.508,27.42 4.649,-1.89 10.645,-18.51 10.879,-22.6 l 1.211,-32.308 15.613,-5.629 -2.117,49.417 c -0.422,8.41 4.387,23.4 8.574,27.38 4.336,-1.78 10.598,-18.23 10.813,-22.57 l 2.676,-69.754 -2.375,-0.707 1.445,3.449 -2.586,-6.14"
         style="fill:#b20d35;fill-opacity:1;fill-rule:nonzero;stroke:none"
         id="path74"
         inkscape:connector-curvature="0" /><path
         d="m 190.637,924.266 -36.594,11.73 -3.816,-69.812 -3.633,-2.012 -1.379,3.254 -7.918,68.57 15.301,5.555 41.511,-14.356 z m 9.707,60.55 -168.8518,-72.718 v -26.395 l 193.5738,-49.223 12.317,124.797 2.187,9.95 -39.226,13.589"
         style="fill:#b20d35;fill-opacity:1;fill-rule:nonzero;stroke:none"
         id="path76"
         inkscape:connector-curvature="0" /><path
         d="m 378.723,909.445 -34.868,10.364 -1.226,-66.465 -1.301,-2.711 -1.355,3.289 -11.68,67.207 14.422,3.113 37.976,-13.097 z m 11.101,43.977 3.352,7.543 -90.363,32.488 -5.418,-12.277 -9.922,-125.274 139.547,-39 -37.196,136.52"
         style="fill:#b20d35;fill-opacity:1;fill-rule:nonzero;stroke:none"
         id="path78"
         inkscape:connector-curvature="0" /><path
         d="m 239.57,971.227 42,19.777 5.903,-9.828 -9.828,-125.289 -49.09,-20.024 13.015,125.758 -2,9.606"
         style="fill:#b20d35;fill-opacity:1;fill-rule:nonzero;stroke:none"
         id="path80"
         inkscape:connector-curvature="0" /><path
         d="m 425.867,1081.12 -0.379,17.97 3.567,7.57 140.347,-63.78 v -9.48 l -6.824,-3.9 0.442,-6.69 -137.153,58.31"
         style="fill:#b20d35;fill-opacity:1;fill-rule:nonzero;stroke:none"
         id="path82"
         inkscape:connector-curvature="0" /><path
         d="m 477.219,1149.09 7.586,2.43 8.508,-10.39 v -46.61 l -16.719,7.61 0.625,46.96"
         style="fill:#b20d35;fill-opacity:1;fill-rule:nonzero;stroke:none"
         id="path84"
         inkscape:connector-curvature="0" /><path
         d="m 498.684,1123.2 v -24.46 l 3.015,-3.95 -31.133,15.79 v 42.04 l -20.507,-6.84 -4.825,5.34 19.114,8.34 -22.942,12.15 -14.375,-56.34 122.11,-55.09 -50.457,63.02"
         style="fill:#b20d35;fill-opacity:1;fill-rule:nonzero;stroke:none"
         id="path86"
         inkscape:connector-curvature="0" /><path
         d="m 401.531,1169.79 -24.519,-10.38 20.984,-10.75 -1.141,-5.91 -20.664,11.23 -0.261,-46.6 -5,-2.19 v 45.07 l -11.582,1.26 -10.188,-12.98 v -42.89 l -7.695,-3.34 3.055,3.94 v 16.94 l -48.211,-61.14 120.363,62.95 -15.141,54.79"
         style="fill:#b20d35;fill-opacity:1;fill-rule:nonzero;stroke:none"
         id="path88"
         inkscape:connector-curvature="0" /><path
         d="m 460.73,1171.61 v 8.55 l -18.472,12.95 h -40.793 l -18.723,-14.31 -0.359,-7.19 21.805,4.84 35.824,-1.09 20.718,-3.75"
         style="fill:#b20d35;fill-opacity:1;fill-rule:nonzero;stroke:none"
         id="path90"
         inkscape:connector-curvature="0" /><path
         d="m 411.074,1227 h 19.832 l -10.379,87.29 z"
         style="fill:#b20d35;fill-opacity:1;fill-rule:nonzero;stroke:none"
         id="path92"
         inkscape:connector-curvature="0" /><path
         d="m 417.703,1314.29 -12.84,-87.38 h -4.597 l -8.801,-5.98 25.105,92.8 1.133,0.56"
         style="fill:#b20d35;fill-opacity:1;fill-rule:nonzero;stroke:none"
         id="path94"
         inkscape:connector-curvature="0" /><path
         d="m 423.367,1314.29 12.817,-87.38 h 4.714 l 9.239,-5.21 -25.633,92.03 -1.137,0.56"
         style="fill:#b20d35;fill-opacity:1;fill-rule:nonzero;stroke:none"
         id="path96"
         inkscape:connector-curvature="0" /><path
         d="m 383.32,1178.56 -4.699,3.96 -2.234,23.71 25.949,15.32 h 37.84 l 25.683,-14.09 -1.218,-24.42 -4.485,-2.98 0.528,19.38 -24.5,13.95 h -31.582 l -21.282,-13.95 v -20.88"
         style="fill:#b20d35;fill-opacity:1;fill-rule:nonzero;stroke:none"
         id="path98"
         inkscape:connector-curvature="0" /><path
         d="m 420.117,1320.87 c -4.082,0 -7.5,-1.3 -8.894,-3.14 -0.149,0.25 -0.317,0.48 -0.41,0.75 0.527,-1.37 2.167,-2.53 4.402,-3.24 1.14,1.11 2.937,1.79 4.902,1.79 1.992,0 3.711,-0.68 4.91,-1.79 1.86,0.57 3.203,1.46 3.95,2.49 -1.399,1.85 -4.836,3.14 -8.86,3.14"
         style="fill:#b20d35;fill-opacity:1;fill-rule:nonzero;stroke:none"
         id="path100"
         inkscape:connector-curvature="0" /><path
         d="m 413.34,1322.94 c 1.711,0.9 4.094,1.47 6.777,1.47 2.324,0 4.492,-0.48 6.145,-1.19 0.855,0.76 1.492,1.67 1.804,2.73 -0.949,2.89 -4.336,5.07 -8.418,5.07 -4.113,0 -7.492,-2.18 -8.425,-5.1 -0.149,0.5 -0.285,1.02 -0.285,1.58 0,-1.75 0.937,-3.37 2.402,-4.56"
         style="fill:#b20d35;fill-opacity:1;fill-rule:nonzero;stroke:none"
         id="path102"
         inkscape:connector-curvature="0" /><path
         d="m 417.07,1333.81 c 0.821,0.2 1.668,0.34 2.61,0.34 0.691,0 1.414,-0.06 2.136,-0.23 0.606,0.66 0.989,1.55 0.989,2.55 0,2 -1.535,3.63 -3.418,3.63 -1.907,0 -3.449,-1.63 -3.449,-3.63 0,-1.06 0.417,-1.99 1.132,-2.66"
         style="fill:#b20d35;fill-opacity:1;fill-rule:nonzero;stroke:none"
         id="path104"
         inkscape:connector-curvature="0" /><path
         d="m 252.844,772.977 c -2.121,0.046 -3.977,-3.711 -4.028,-8.399 -0.164,-4.625 1.543,-8.457 3.664,-8.488 2.168,-0.078 4.004,3.683 4.102,8.348 0.129,4.679 -1.57,8.496 -3.738,8.539"
         style="fill:#b20d35;fill-opacity:1;fill-rule:nonzero;stroke:none"
         id="path106"
         inkscape:connector-curvature="0" /><path
         d="m 694.902,725.141 -2.644,2.683 -2.192,46.934 -14.082,3.949 h 16.274 l 20.769,-6.43 -0.996,-2.211 -17.629,3.829 z m 31.309,87.312 -95.059,32.309 43.223,-91.336 10.359,-2.305 -0.144,-4.668 -6.641,-3.89 1.055,-18.547 47.207,-11.875 v 100.312"
         style="fill:#b20d35;fill-opacity:1;fill-rule:nonzero;stroke:none"
         id="path108"
         inkscape:connector-curvature="0" /><path
         d="m 726.211,704.324 -46.68,10.778 -0.676,-2.782 47.356,-10.918 v 2.922"
         style="fill:#b20d35;fill-opacity:1;fill-rule:nonzero;stroke:none"
         id="path110"
         inkscape:connector-curvature="0" /><path
         d="m 284.363,853.785 -0.625,0.211 -57.847,-23.773 -104.453,26.902 v -3.914 l 104.089,-26.801 0.657,-0.172 57.769,23.735 151.535,-42.938 1.035,3.653 -152.16,43.097"
         style="fill:#b20d35;fill-opacity:1;fill-rule:nonzero;stroke:none"
         id="path112"
         inkscape:connector-curvature="0" /><path
         d="m 283.281,845.281 -0.476,0.145 -56.887,-23.141 -104.48,27.117 v -2.961 l 104.667,-27.128 56.883,23.101 151.465,-41.793 0.742,2.727 -151.914,41.933"
         style="fill:#b20d35;fill-opacity:1;fill-rule:nonzero;stroke:none"
         id="path114"
         inkscape:connector-curvature="0" /><path
         d="m 725.176,603.063 c -0.176,14.253 -0.442,30.613 -0.442,39.042 l -24.07,4.329 0.359,-36.223 c 10.793,-3.027 18.965,-5.508 24.153,-7.148"
         style="fill:#b20d35;fill-opacity:1;fill-rule:nonzero;stroke:none"
         id="path116"
         inkscape:connector-curvature="0" /><path
         d="m 654.863,621.82 v 56.957 l -17.898,2.731 v -55.793 c 6.211,-1.41 12.207,-2.559 17.898,-3.895"
         style="fill:#b20d35;fill-opacity:1;fill-rule:nonzero;stroke:none"
         id="path118"
         inkscape:connector-curvature="0" /><path
         d="m 625.828,627.977 v 56.527 l -18.863,2.926 v -55.813 c 6.519,-1.293 12.82,-2.328 18.863,-3.64"
         style="fill:#b20d35;fill-opacity:1;fill-rule:nonzero;stroke:none"
         id="path120"
         inkscape:connector-curvature="0" /><path
         d="m 393.816,661.629 v 73.633 l -23.367,3.633 v -74.356 l 23.367,-2.91"
         style="fill:#b20d35;fill-opacity:1;fill-rule:nonzero;stroke:none"
         id="path122"
         inkscape:connector-curvature="0" /><path
         d="m 353.547,666.793 0.301,76.031 -24.649,3.762 v -76.5 l 24.348,-3.293"
         style="fill:#b20d35;fill-opacity:1;fill-rule:nonzero;stroke:none"
         id="path124"
         inkscape:connector-curvature="0" /><path
         d="m 252.734,783.094 c 0,0 9.051,-11.465 9.051,-27.574 l -19.012,-5.215 c 0,18.41 9.961,32.789 9.961,32.789 z m -9.863,-99.739 -0.598,63.625 20.239,5.274 v -72.109 c 7.222,-1.184 14.48,-2.243 21.328,-3.332 V 853.227 L 226.023,829.84 V 686.277 c 5.071,-0.871 10.801,-1.894 16.848,-2.922"
         style="fill:#b20d35;fill-opacity:1;fill-rule:nonzero;stroke:none"
         id="path126"
         inkscape:connector-curvature="0" /><path
         d="m 187.891,693.371 v 48.625 l -43.614,7.578 V 702.73 c 8.684,-2.093 28.938,-6.261 43.614,-9.359"
         style="fill:#b20d35;fill-opacity:1;fill-rule:nonzero;stroke:none"
         id="path128"
         inkscape:connector-curvature="0" /><path
         d="m 680.977,615.496 -1.446,123.051 h -1.582 l 1.465,-122.676 1.563,-0.375"
         style="fill:#b20d35;fill-opacity:1;fill-rule:nonzero;stroke:none"
         id="path130"
         inkscape:connector-curvature="0" /><path
         d="m 616.238,694.344 c -2.652,0 -4.82,2.84 -4.82,6.402 0,3.539 2.168,6.41 4.82,6.41 2.668,0 4.836,-2.871 4.836,-6.41 0,-3.562 -2.168,-6.402 -4.836,-6.402 m 9.414,-2.574 c -1.992,14.043 -9.656,20.539 -9.656,20.539 -8.242,-7.106 -9.055,-18.821 -9.055,-18.821 l 18.887,-2.949 c 0,0.41 -0.098,0.805 -0.176,1.231"
         style="fill:#b20d35;fill-opacity:1;fill-rule:nonzero;stroke:none"
         id="path132"
         inkscape:connector-curvature="0" /><path
         d="m 645.73,688.176 c -2.644,0 -4.722,2.844 -4.722,6.398 0,3.555 2.078,6.446 4.722,6.446 2.598,0 4.7,-2.891 4.7,-6.446 0,-3.554 -2.102,-6.398 -4.7,-6.398 m 9.133,-2.574 c -1.902,14.043 -9.394,20.546 -9.394,20.546 -8.047,-7.136 -8.821,-18.835 -8.821,-18.835 l 18.43,-2.946 c 0,0.426 -0.144,0.824 -0.215,1.235"
         style="fill:#b20d35;fill-opacity:1;fill-rule:nonzero;stroke:none"
         id="path134"
         inkscape:connector-curvature="0" /><path
         d="m 476.777,651.652 v 70.911 c 0,22.316 23.328,37.816 27.356,40.316 3.992,-3.625 29.734,-27.934 29.734,-51.449 v -67.539 c 0.711,-0.106 1.399,-0.192 1.946,-0.274 v 67.813 c 0,26.222 -29.692,52.246 -30.958,53.328 l -0.507,0.426 -0.578,-0.325 c -0.313,-0.168 -28.887,-16.914 -28.887,-42.296 v -70.622 c 0.527,-0.062 1.222,-0.171 1.894,-0.289"
         style="fill:#b20d35;fill-opacity:1;fill-rule:nonzero;stroke:none"
         id="path136"
         inkscape:connector-curvature="0" /><path
         d="m 527.961,644.855 v 61.36 c 0,0.457 0.047,0.91 -0.031,1.355 -1.825,12.325 -9.2,22.348 -9.2,22.348 -10.671,-8.445 -10.41,-17.547 -10.41,-17.547 v -64.824 c 7.207,-0.992 14.219,-1.934 19.641,-2.692"
         style="fill:#b20d35;fill-opacity:1;fill-rule:nonzero;stroke:none"
         id="path138"
         inkscape:connector-curvature="0" /><path
         d="m 502.59,648.203 v 62.047 c 0,0.453 0.047,0.926 0,1.348 -1.86,12.3 -9.192,22.351 -9.192,22.351 -10.71,-8.465 -10.449,-17.547 -10.449,-17.547 V 650.98 c 5.535,-0.796 12.512,-1.785 19.641,-2.777"
         style="fill:#b20d35;fill-opacity:1;fill-rule:nonzero;stroke:none"
         id="path140"
         inkscape:connector-curvature="0" /><path
         d="m 408.281,1171.61 h 26.668 l -13.316,-52.11 z"
         style="fill:#b20d35;fill-opacity:1;fill-rule:nonzero;stroke:none"
         id="path142"
         inkscape:connector-curvature="0" /><path
         d="m 999.824,542.742 v -93.859 h -10.722 v 93.859 h 10.722"
         style="fill:#b20d35;fill-opacity:1;fill-rule:nonzero;stroke:none"
         id="path144"
         inkscape:connector-curvature="0" /><path
         d="m 1041.14,542.742 h 10.09 l 53.76,-75.773 v 75.773 h 9.59 v -93.859 h -10.14 l -53.74,74.98 v -74.98 h -9.56 v 93.859"
         style="fill:#b20d35;fill-opacity:1;fill-rule:nonzero;stroke:none"
         id="path146"
         inkscape:connector-curvature="0" /><path
         d="m 1187.23,544.574 c 3,0 6.38,-0.383 10.18,-1.105 3.82,-0.746 7.47,-2.301 10.9,-4.664 3.47,-2.348 6.53,-5.723 9.15,-10.082 2.63,-4.383 4.27,-10.157 4.96,-17.313 h -10.86 c -0.94,5.242 -2.34,9.367 -4.07,12.406 -1.76,3.004 -3.78,5.27 -6,6.786 -2.22,1.539 -4.65,2.519 -7.18,2.964 -2.5,0.43 -5.01,0.661 -7.47,0.661 -2.87,0 -5.57,-0.403 -8.09,-1.192 -2.48,-0.789 -4.7,-1.847 -6.58,-3.203 -1.89,-1.352 -3.38,-2.965 -4.46,-4.797 -1.11,-1.82 -1.62,-3.797 -1.62,-5.887 0,-2.894 0.8,-5.207 2.48,-6.953 1.66,-1.738 3.84,-3.242 6.57,-4.457 2.68,-1.222 5.78,-2.218 9.24,-3.023 3.47,-0.774 6.99,-1.641 10.6,-2.543 3.59,-0.918 7.13,-2.012 10.58,-3.289 3.44,-1.258 6.53,-2.903 9.25,-4.914 2.7,-2.004 4.92,-4.571 6.56,-7.676 1.68,-3.098 2.5,-6.906 2.5,-11.473 0,-4.179 -0.88,-7.972 -2.7,-11.386 -1.74,-3.426 -4.33,-6.309 -7.63,-8.739 -3.33,-2.379 -7.35,-4.254 -12.03,-5.558 -4.67,-1.313 -9.95,-1.961 -15.78,-1.961 -6.1,0 -11.37,0.961 -15.73,2.875 -4.36,1.918 -8,4.508 -10.79,7.734 -2.85,3.242 -4.95,7.028 -6.24,11.336 -1.33,4.328 -1.98,8.91 -1.98,13.699 h 10.5 c 0,-4.355 0.6,-8.117 1.81,-11.265 1.25,-3.141 2.92,-5.778 5.06,-7.852 2.19,-2.109 4.72,-3.66 7.6,-4.652 2.98,-1.02 6.21,-1.516 9.72,-1.516 3.95,0 7.54,0.301 10.82,0.906 3.29,0.61 6.13,1.602 8.48,2.957 2.39,1.364 4.2,3.102 5.5,5.235 1.35,2.144 1.97,4.758 1.97,7.805 0,4.464 -1.4,7.894 -4.19,10.296 -2.79,2.403 -6.31,4.301 -10.54,5.692 -4.28,1.418 -8.88,2.637 -13.82,3.672 -4.96,1.047 -9.54,2.48 -13.8,4.277 -4.24,1.785 -7.79,4.273 -10.58,7.469 -2.8,3.176 -4.2,7.617 -4.2,13.304 0,4.356 0.92,8.149 2.81,11.344 1.89,3.192 4.35,5.828 7.39,7.922 3.01,2.102 6.42,3.652 10.23,4.668 3.82,0.996 7.65,1.492 11.48,1.492"
         style="fill:#b20d35;fill-opacity:1;fill-rule:nonzero;stroke:none"
         id="path148"
         inkscape:connector-curvature="0" /><path
         d="m 1326.02,542.742 v -10.355 h -31.05 v -83.504 h -10.52 v 83.504 h -30.94 v 10.355 h 72.51"
         style="fill:#b20d35;fill-opacity:1;fill-rule:nonzero;stroke:none"
         id="path150"
         inkscape:connector-curvature="0" /><path
         d="m 1371.91,542.742 v -93.859 h -10.75 v 93.859 h 10.75"
         style="fill:#b20d35;fill-opacity:1;fill-rule:nonzero;stroke:none"
         id="path152"
         inkscape:connector-curvature="0" /><path
         d="m 1479.27,542.742 v -10.355 h -31.06 v -83.504 h -10.5 v 83.504 h -30.91 v 10.355 h 72.47"
         style="fill:#b20d35;fill-opacity:1;fill-rule:nonzero;stroke:none"
         id="path154"
         inkscape:connector-curvature="0" /><path
         d="M 1521.97,542.742 V 477.59 c 0,-3.336 0.76,-6.238 2.17,-8.707 1.49,-2.492 3.42,-4.602 5.82,-6.305 2.42,-1.723 5.19,-2.973 8.37,-3.801 3.18,-0.836 6.48,-1.242 10,-1.242 3.54,0 6.87,0.445 10.09,1.375 3.21,0.918 6.03,2.227 8.46,3.926 2.41,1.711 4.34,3.797 5.79,6.285 1.44,2.496 2.16,5.317 2.16,8.469 v 65.152 h 10.5 v -67.379 c 0,-4.722 -1.12,-8.863 -3.35,-12.398 -2.25,-3.539 -5.1,-6.465 -8.67,-8.789 -3.53,-2.313 -7.51,-4.051 -11.92,-5.242 -4.44,-1.157 -8.77,-1.758 -13.06,-1.758 -4.27,0 -8.6,0.601 -12.97,1.758 -4.36,1.191 -8.33,2.929 -11.84,5.242 -3.56,2.324 -6.4,5.25 -8.68,8.789 -2.22,3.535 -3.33,7.676 -3.33,12.398 v 67.379 h 10.46"
         style="fill:#b20d35;fill-opacity:1;fill-rule:nonzero;stroke:none"
         id="path156"
         inkscape:connector-curvature="0" /><path
         d="m 1690.75,542.742 v -10.355 h -31.08 v -83.504 h -10.53 v 83.504 h -30.89 v 10.355 h 72.5"
         style="fill:#b20d35;fill-opacity:1;fill-rule:nonzero;stroke:none"
         id="path158"
         inkscape:connector-curvature="0" /><path
         d="m 1792.33,542.742 v -10.355 h -58.36 v -28.313 h 55.06 v -10.625 h -55.06 V 459.23 h 58.5 v -10.347 h -68.95 v 93.859 h 68.81"
         style="fill:#b20d35;fill-opacity:1;fill-rule:nonzero;stroke:none"
         id="path160"
         inkscape:connector-curvature="0" /><path
         d="m 2134.77,542.766 v -10.379 h -31.07 v -83.489 h -10.51 v 83.489 h -30.9 v 10.379 h 72.48"
         style="fill:#b20d35;fill-opacity:1;fill-rule:nonzero;stroke:none"
         id="path162"
         inkscape:connector-curvature="0" /><path
         d="m 2236.35,542.766 v -10.379 h -58.34 v -28.313 h 55.06 v -10.625 h -55.06 v -34.203 h 58.47 v -10.348 h -68.93 v 93.868 h 68.8"
         style="fill:#b20d35;fill-opacity:1;fill-rule:nonzero;stroke:none"
         id="path164"
         inkscape:connector-curvature="0" /><path
         d="m 2313.68,544.574 c 5.44,0 10.41,-0.586 14.99,-1.758 4.5,-1.179 8.53,-3.093 11.99,-5.699 3.41,-2.621 6.3,-6.058 8.57,-10.297 2.28,-4.234 3.88,-9.363 4.86,-15.41 h -10.6 c -0.71,4.278 -2.05,7.891 -4.05,10.828 -1.93,2.93 -4.33,5.278 -7.11,7.075 -2.84,1.804 -5.83,3.066 -9.03,3.796 -3.26,0.735 -6.46,1.118 -9.62,1.118 -4.02,0 -8,-0.676 -11.95,-2.032 -4.02,-1.351 -7.56,-3.535 -10.68,-6.547 -3.17,-3.015 -5.71,-6.949 -7.7,-11.808 -1.95,-4.848 -2.94,-10.817 -2.94,-17.887 0,-7.082 0.99,-13.07 2.94,-17.976 1.99,-4.899 4.53,-8.856 7.7,-11.836 3.12,-3.039 6.66,-5.219 10.68,-6.575 3.95,-1.336 7.93,-2.031 11.95,-2.031 3.42,0 6.78,0.481 10.13,1.438 3.32,0.972 6.36,2.48 9.15,4.515 2.82,2.067 5.17,4.684 7.2,7.887 1.93,3.191 3.24,7 3.96,11.469 h 10.47 c -0.77,-6.133 -2.45,-11.43 -5.01,-15.938 -2.62,-4.508 -5.73,-8.218 -9.42,-11.14 -3.73,-2.918 -7.92,-5.086 -12.48,-6.496 -4.6,-1.399 -9.23,-2.094 -14,-2.094 -6.79,0 -12.96,1.035 -18.39,3.082 -5.47,2.058 -10.13,5.121 -13.97,9.18 -3.87,4.05 -6.81,9.132 -8.84,15.203 -2.07,6.086 -3.1,13.168 -3.1,21.312 0,8.121 1.05,15.227 3.18,21.289 2.12,6.086 5.1,11.145 8.98,15.227 3.88,4.058 8.51,7.094 13.96,9.097 5.42,2.012 11.46,3.008 18.18,3.008"
         style="fill:#b20d35;fill-opacity:1;fill-rule:nonzero;stroke:none"
         id="path166"
         inkscape:connector-curvature="0" /><path
         d="m 2402.57,542.766 v -39.871 h 51.94 v 39.871 h 10.48 v -93.868 h -10.48 v 43.379 h -51.94 v -43.379 h -10.69 v 93.868 h 10.69"
         style="fill:#b20d35;fill-opacity:1;fill-rule:nonzero;stroke:none"
         id="path168"
         inkscape:connector-curvature="0" /><path
         d="m 2504.46,542.766 h 10.09 l 53.74,-75.797 v 75.797 h 9.58 v -93.868 h -10.11 L 2514,523.879 v -74.981 h -9.54 v 93.868"
         style="fill:#b20d35;fill-opacity:1;fill-rule:nonzero;stroke:none"
         id="path170"
         inkscape:connector-curvature="0" /><path
         d="m 2658.61,534.227 c -3.99,0 -8.03,-0.676 -12.06,-2.032 -4,-1.351 -7.62,-3.535 -10.83,-6.547 -3.15,-3.015 -5.78,-6.949 -7.75,-11.808 -2.04,-4.848 -3.04,-10.817 -3.04,-17.887 0,-7.082 1,-13.07 3.04,-17.976 1.97,-4.899 4.6,-8.856 7.75,-11.836 3.21,-3.039 6.83,-5.219 10.83,-6.575 4.03,-1.336 8.07,-2.031 12.06,-2.031 4.12,0 8.15,0.695 12.05,2.031 3.98,1.356 7.45,3.555 10.55,6.629 3.04,3.035 5.5,7.024 7.38,11.918 1.86,4.903 2.82,10.848 2.82,17.84 0,7.07 -0.96,13.039 -2.87,17.887 -1.95,4.859 -4.45,8.793 -7.5,11.808 -3.07,3.012 -6.57,5.196 -10.49,6.547 -3.93,1.356 -7.9,2.032 -11.94,2.032 z m 0,10.347 c 6.57,0 12.51,-0.972 17.88,-2.937 5.4,-1.977 9.98,-4.977 13.78,-8.977 3.79,-4.035 6.76,-9.109 8.85,-15.203 2.14,-6.141 3.16,-13.301 3.16,-21.504 0,-8.23 -1.02,-15.371 -3.08,-21.433 -2.06,-6.094 -4.97,-11.168 -8.73,-15.227 -3.76,-4.055 -8.36,-7.094 -13.76,-9.094 -5.44,-2.011 -11.45,-3.023 -18.1,-3.023 -6.81,0 -12.96,1.035 -18.47,3.082 -5.5,2.058 -10.2,5.121 -14.1,9.18 -3.88,4.05 -6.87,9.132 -8.98,15.203 -2.12,6.086 -3.14,13.168 -3.14,21.312 0,8.121 1.09,15.227 3.19,21.289 2.16,6.086 5.18,11.145 9.17,15.227 3.89,4.058 8.58,7.094 14.03,9.097 5.46,2.012 11.58,3.008 18.3,3.008"
         style="fill:#b20d35;fill-opacity:1;fill-rule:nonzero;stroke:none"
         id="path172"
         inkscape:connector-curvature="0" /><path
         d="m 2748.3,542.766 v -83.52 h 47.59 v -10.348 h -58.36 v 93.868 h 10.77"
         style="fill:#b20d35;fill-opacity:1;fill-rule:nonzero;stroke:none"
         id="path174"
         inkscape:connector-curvature="0" /><path
         d="m 2870.2,534.227 c -4.01,0 -8.03,-0.676 -12.04,-2.032 -4.04,-1.351 -7.61,-3.535 -10.82,-6.547 -3.19,-3.015 -5.8,-6.949 -7.82,-11.808 -2,-4.848 -2.99,-10.817 -2.99,-17.887 0,-7.082 0.99,-13.07 2.99,-17.976 2.02,-4.899 4.63,-8.856 7.82,-11.836 3.21,-3.039 6.78,-5.219 10.82,-6.575 4.01,-1.336 8.03,-2.031 12.04,-2.031 4.11,0 8.14,0.695 12.07,2.031 3.92,1.356 7.44,3.555 10.5,6.629 3.03,3.035 5.51,7.024 7.44,11.918 1.85,4.903 2.78,10.848 2.78,17.84 0,7.07 -0.93,13.039 -2.87,17.887 -1.94,4.859 -4.42,8.793 -7.47,11.808 -3.07,3.012 -6.56,5.196 -10.54,6.547 -3.9,1.356 -7.9,2.032 -11.91,2.032 z m 0,10.347 c 6.59,0 12.52,-0.972 17.9,-2.937 5.39,-1.977 9.99,-4.977 13.75,-8.977 3.81,-4.035 6.77,-9.109 8.89,-15.203 2.09,-6.141 3.13,-13.301 3.13,-21.504 0,-8.23 -1.04,-15.371 -3.08,-21.433 -2.07,-6.094 -4.96,-11.168 -8.7,-15.227 -3.81,-4.055 -8.38,-7.094 -13.81,-9.094 -5.39,-2.011 -11.44,-3.023 -18.08,-3.023 -6.8,0 -12.97,1.035 -18.47,3.082 -5.51,2.058 -10.21,5.121 -14.11,9.18 -3.88,4.05 -6.88,9.132 -8.97,15.203 -2.09,6.086 -3.11,13.168 -3.11,21.312 0,8.121 1.04,15.227 3.19,21.289 2.12,6.086 5.16,11.145 9.12,15.227 3.91,4.058 8.61,7.094 14.08,9.097 5.42,2.012 11.57,3.008 18.27,3.008"
         style="fill:#b20d35;fill-opacity:1;fill-rule:nonzero;stroke:none"
         id="path176"
         inkscape:connector-curvature="0" /><path
         d="m 2946.88,495.953 c 0,8.121 1.06,15.227 3.18,21.289 2.1,6.086 5.09,11.145 8.99,15.227 3.88,4.058 8.53,7.094 13.97,9.097 5.41,2.012 11.45,3.008 18.17,3.008 5.44,0 10.41,-0.586 14.99,-1.758 4.5,-1.179 8.53,-3.093 11.99,-5.699 3.42,-2.621 6.3,-6.058 8.58,-10.297 2.24,-4.234 3.87,-9.363 4.85,-15.41 h -10.62 c -0.69,4.278 -2.03,7.891 -4.03,10.828 -1.93,2.93 -4.33,5.278 -7.11,7.075 -2.84,1.804 -5.83,3.066 -9.06,3.796 -3.23,0.735 -6.4,1.118 -9.59,1.118 -4.02,0 -8.02,-0.676 -11.95,-2.032 -4.01,-1.351 -7.56,-3.535 -10.68,-6.547 -3.18,-3.015 -5.71,-6.949 -7.7,-11.808 -1.95,-4.848 -2.97,-10.817 -2.97,-17.887 0,-7.082 1.21,-13.055 3.64,-17.898 2.39,-4.867 5.45,-8.825 9.15,-11.86 3.74,-3.074 7.8,-5.273 12.22,-6.629 4.41,-1.336 8.6,-2.031 12.65,-2.031 1.33,0 3.08,0.07 5.37,0.203 2.26,0.133 4.69,0.317 7.28,0.52 2.55,0.226 5.06,0.508 7.49,0.84 2.39,0.351 4.34,0.754 5.78,1.191 v 26.891 h -21.59 v 10.343 H 3032 v -45.617 c -2.55,-0.879 -5.51,-1.625 -8.97,-2.215 -3.46,-0.64 -6.93,-1.121 -10.39,-1.457 -3.47,-0.363 -6.68,-0.613 -9.77,-0.796 -3.05,-0.168 -5.51,-0.262 -7.32,-0.262 -6.72,0 -13.03,1.012 -18.96,3.023 -5.91,2 -11.03,5.039 -15.37,9.094 -4.38,4.059 -7.88,9.172 -10.43,15.285 -2.59,6.121 -3.91,13.231 -3.91,21.375"
         style="fill:#b20d35;fill-opacity:1;fill-rule:nonzero;stroke:none"
         id="path178"
         inkscape:connector-curvature="0" /><path
         d="m 3102.29,496.59 27.86,46.176 h 12.88 l -35.36,-56.254 v -37.614 h -10.54 v 37.614 l -35.66,56.254 h 13.13 l 27.69,-46.176"
         style="fill:#b20d35;fill-opacity:1;fill-rule:nonzero;stroke:none"
         id="path180"
         inkscape:connector-curvature="0" /><path
         d="M 986.855,380.145 V 393.93 H 3142.05 V 380.145 H 986.855 v 0"
         style="fill:#b20d35;fill-opacity:1;fill-rule:nonzero;stroke:none"
         id="path182"
         inkscape:connector-curvature="0" /><path
         d="m 1909.88,522.938 c -15.9,0 -25.12,-17.778 -25.12,-40.778 0,-11.07 4.96,-15.613 13.87,-15.613 16.41,0 25.06,19.336 25.06,41.043 0,11.203 -6.4,15.348 -13.81,15.348 m -13.37,-65.606 c -15.34,0 -23.97,9.492 -23.97,25.527 0,28.114 16.89,49.129 39.33,49.129 16.49,0 24.02,-10.351 24.02,-25.695 0,-27.398 -16.25,-48.961 -39.38,-48.961"
         style="fill:#b20d35;fill-opacity:1;fill-rule:nonzero;stroke:none"
         id="path184"
         inkscape:connector-curvature="0" /><path
         d="m 1998.16,550.066 c -3.15,2.098 -6.71,3.223 -10.54,3.223 -6.2,0 -10.49,-4.414 -12.2,-12.484 l -1.99,-10.907 h 19.59 l -4.99,-8.398 h -16.13 l -12.76,-64.305 c -2.58,-13.082 -5.58,-20.726 -10.95,-27.535 l -9.1,4.938 c 4.41,6.105 7.08,12.66 9.25,23.562 l 12.34,63.34 h -7.26 l 1.65,8.398 h 7.18 l 1.85,9.493 c 1.88,9.351 5.32,15.476 10.81,19.004 3.77,2.613 8.21,3.55 13.4,3.55 6.1,0 10.36,-1.117 13.91,-3.55 l -4.06,-8.329"
         style="fill:#b20d35;fill-opacity:1;fill-rule:nonzero;stroke:none"
         id="path186"
         inkscape:connector-curvature="0" /><path
         d="m 1276.57,882.922 -13.9,-6.942 -39.12,43.602 c -6.55,4.973 -12.84,9.574 -18.8,13.879 -5.98,4.277 -11.89,8.09 -17.84,11.414 -6.94,3.629 -14.1,6.582 -21.54,8.898 -7.42,2.309 -15.6,3.633 -24.55,3.95 -7.59,0.332 -15.19,-0.137 -22.79,-1.469 -7.57,-1.305 -14.72,-3.316 -21.28,-5.93 -6.94,-2.996 -13.08,-6.636 -18.35,-10.902 -5.3,-4.317 -9.43,-9.418 -12.35,-15.383 -3.36,-7.601 -4.99,-14.375 -4.99,-20.316 0,-5.926 1,-11.313 2.97,-16.094 2.02,-4.793 4.7,-8.914 8.17,-12.391 3.46,-3.465 7.03,-6.511 10.63,-9.172 7.95,-5.605 16.4,-10.14 25.32,-13.601 8.91,-3.492 18,-6.383 27.22,-8.66 10.58,-2.676 21.31,-5.063 32.22,-7.207 10.89,-2.145 21.66,-4.555 32.2,-7.184 9.56,-2.66 18.83,-5.367 27.75,-8.176 8.93,-2.816 17.15,-6.215 24.75,-10.168 7.62,-3.953 14.57,-8.586 20.82,-13.855 6.27,-5.313 11.72,-11.563 16.39,-18.852 4.29,-6.59 7.33,-13.941 9.14,-22.035 1.81,-8.094 2.73,-16.117 2.73,-24.019 0,-7.926 -0.92,-15.614 -2.73,-23.047 -1.81,-7.434 -3.87,-13.965 -6.2,-19.578 -4.29,-8.602 -9.36,-16.329 -15.11,-23.274 -5.77,-6.957 -12.15,-13.062 -19.05,-18.336 -7.96,-5.969 -16.22,-10.871 -24.81,-14.871 -8.57,-3.949 -17,-7.101 -25.29,-9.418 -7.57,-2.277 -15.01,-3.875 -22.25,-4.672 -7.28,-0.824 -14.42,-1.269 -21.31,-1.269 -6.95,0.351 -14.07,0.933 -21.32,1.754 -7.29,0.824 -14.7,1.707 -22.26,2.703 -5.98,0.992 -12.09,2.664 -18.34,4.976 -6.31,2.301 -12.57,4.934 -18.83,7.907 -4.64,2.312 -9.28,4.793 -13.89,7.441 -4.6,2.625 -9.1,5.113 -13.39,7.426 l -6.92,-23.793 h -21.29 l -32.22,116.953 18.35,2.957 c 4.59,-8.25 9.52,-16.273 14.86,-24.027 5.26,-7.762 10.71,-15.27 16.32,-22.563 5.96,-7.258 12.3,-14.113 19.07,-20.547 6.76,-6.445 14.28,-12.285 22.56,-17.574 8.26,-5.297 16.64,-9.398 25.02,-12.398 8.43,-2.954 16.75,-4.95 25.01,-5.926 8.28,-1.028 16.26,-1.324 24.07,-1.028 7.73,0.352 15.25,1.172 22.55,2.497 8.22,1.324 15.82,3.8 22.73,7.457 6.98,3.582 13.06,7.734 18.35,12.371 5.61,4.976 10.31,10.312 14.12,16.125 3.81,5.746 6.53,11.625 8.15,17.558 2.33,8.242 3.52,15.86 3.52,22.797 0,6.926 -1.08,13.129 -3.2,18.578 -2.2,5.465 -5.27,10.325 -9.19,14.586 -4,4.328 -8.43,7.774 -13.4,10.434 -8.94,4.277 -17.94,7.91 -27.02,10.902 -9.05,2.953 -18.2,5.613 -27.47,7.926 -9.59,2.316 -19.04,4.367 -28.49,6.203 -9.41,1.82 -18.74,3.867 -28.02,6.172 -9.9,2.324 -19.73,5.312 -29.46,8.926 -9.7,3.629 -18.75,7.609 -26.99,11.914 -8.24,4.594 -15.59,9.554 -22.04,14.851 -6.46,5.27 -11.17,10.715 -14.1,16.348 -3.98,6.934 -6.72,14.195 -8.22,21.816 -1.47,7.586 -2.23,14.993 -2.23,22.258 0.31,9.938 2.12,19.344 5.45,28.25 3.32,8.903 7.79,16.836 13.38,23.77 6.61,7.949 14.05,14.445 22.31,19.578 8.27,5.129 17.01,9.016 26.25,11.648 10.55,3.285 21.5,5.207 32.71,5.7 11.22,0.507 22.42,0.41 33.67,-0.231 7.25,-0.672 14.2,-1.758 20.85,-3.219 6.56,-1.492 12.97,-3.312 19.04,-5.449 6.12,-2.16 12.21,-4.558 18.34,-7.195 6.11,-2.633 12.48,-5.449 19.08,-8.422 l 5.45,16.828 h 18.34 l 30.69,-90.16"
         style="fill:#b20d35;fill-opacity:1;fill-rule:nonzero;stroke:none"
         id="path188"
         inkscape:connector-curvature="0" /><path
         d="m 1584.21,921.137 23.61,-75.957 -15.2,-4.657 c -3.05,5.352 -6.52,10.762 -10.28,16.258 -3.82,5.5 -7.99,10.633 -12.48,15.395 -4.48,4.793 -9.39,9.148 -14.78,13.105 -5.3,3.907 -10.99,7.289 -16.85,10.121 -5.66,2.504 -11.56,4.555 -17.75,6.129 -6.2,1.532 -12.76,2.438 -19.79,2.723 -3.4,0 -6.36,-0.203 -8.89,-0.633 -2.53,-0.426 -4.62,-1.262 -6.33,-2.535 -1.67,-1.266 -2.97,-2.953 -3.77,-5.074 -0.86,-2.102 -1.27,-4.828 -1.27,-8.223 V 651.926 l 46.82,-12.215 v -13.512 h -133.32 v 13.067 l 43.46,11.804 v 235.871 c 0,3.098 -0.45,5.778 -1.3,8.028 -0.82,2.234 -1.97,4.011 -3.35,5.273 -1.39,1.289 -3,2.231 -4.84,2.953 -1.83,0.707 -3.75,1.059 -5.73,1.059 -6.17,0 -12.22,-0.492 -18.12,-1.484 -5.94,-0.969 -11.71,-2.465 -17.34,-4.418 -7.81,-3.106 -15.31,-7.028 -22.32,-11.832 -7.06,-4.77 -13.36,-10.118 -18.99,-16.008 -4.24,-4.793 -8,-9.782 -11.42,-14.989 -3.36,-5.187 -6.04,-10.613 -8.01,-16.238 l -16.01,5.059 24.89,76.793 h 249.36"
         style="fill:#b20d35;fill-opacity:1;fill-rule:nonzero;stroke:none"
         id="path190"
         inkscape:connector-curvature="0" /><path
         d="m 1876.95,920.711 28.22,-78.473 -13.07,-3.808 c -4.21,5.625 -8.81,10.972 -13.88,16.019 -5.06,5.067 -10.41,9.844 -16.06,14.34 -5.64,4.242 -11.53,8.18 -17.74,11.832 -6.14,3.649 -12.5,6.875 -18.96,9.707 -7.59,3.375 -15.56,6.11 -23.85,8.231 -8.29,2.105 -16.66,3.441 -25.11,4.007 -6.74,0.547 -13.41,0.692 -20.03,0.426 -6.6,-0.289 -13.17,-0.992 -19.63,-2.121 -3.67,-0.832 -7.01,-2.242 -10.1,-4.203 -3.11,-1.988 -5.61,-4.359 -7.63,-7.184 -1.95,-2.543 -3.51,-5.41 -4.6,-8.621 -1.13,-3.254 -1.7,-6.57 -1.7,-9.929 v -77.227 h 70.9 l 13.08,54.43 h 16 V 719.02 h -14.77 l -14.75,54.429 h -70.46 V 679.77 c 0,-3.352 0.67,-6.809 2.11,-10.34 1.39,-3.489 3.11,-6.649 5.05,-9.465 2.25,-3.106 4.94,-5.723 8.03,-7.801 3.1,-2.152 6.34,-3.465 9.71,-4.043 6.72,-1.086 13.39,-1.941 20.01,-2.508 6.64,-0.543 13.31,-0.722 20.06,-0.422 8.46,0.579 16.86,1.844 25.32,3.786 8.46,1.972 16.72,4.781 24.91,8.449 7.55,3.371 15.23,7.719 22.99,13.078 7.74,5.348 15.4,11.519 22.98,18.574 5.33,5.082 10.59,10.567 15.81,16.445 5.23,5.907 10.37,12.254 15.38,18.977 l 14.36,-5.48 -38.83,-92.821 h -248.88 v 13.082 l 36.69,9.696 v 248.121 l -38.43,10.543 v 13.07 h 246.87"
         style="fill:#b20d35;fill-opacity:1;fill-rule:nonzero;stroke:none"
         id="path192"
         inkscape:connector-curvature="0" /><path
         d="m 2045.2,922.391 v -14.75 l -41.76,-11.399 84.38,-222.351 86.92,222.765 -46.41,12.246 v 12.235 h 113.89 v -11.403 l -38.81,-10.117 -111.83,-273.418 h -27.37 l -110.6,273.418 -35.01,9.285 v 13.489 h 126.6"
         style="fill:#b20d35;fill-opacity:1;fill-rule:nonzero;stroke:none"
         id="path194"
         inkscape:connector-curvature="0" /><path
         d="m 2513,920.711 28.3,-78.473 -13.09,-3.808 c -4.21,5.625 -8.85,10.972 -13.92,16.019 -5.06,5.067 -10.38,9.844 -16.02,14.34 -5.63,4.242 -11.52,8.18 -17.73,11.832 -6.19,3.649 -12.53,6.875 -19.02,9.707 -7.58,3.375 -15.51,6.11 -23.81,8.231 -8.33,2.105 -16.64,3.441 -25.12,4.007 -6.74,0.547 -13.44,0.692 -20.02,0.426 -6.63,-0.289 -13.16,-0.992 -19.64,-2.121 -3.66,-0.832 -6.99,-2.242 -10.1,-4.203 -3.1,-1.988 -5.63,-4.359 -7.61,-7.184 -1.98,-2.543 -3.51,-5.41 -4.64,-8.621 -1.14,-3.254 -1.71,-6.57 -1.71,-9.929 v -77.227 h 70.91 l 13.07,54.43 h 16.01 V 719.02 h -14.71 l -14.78,54.429 h -70.5 V 679.77 c 0,-3.352 0.72,-6.809 2.18,-10.34 1.33,-3.489 3.04,-6.649 5.03,-9.465 2.25,-3.106 4.95,-5.723 8,-7.801 3.12,-2.152 6.35,-3.465 9.69,-4.043 6.76,-1.086 13.45,-1.941 20.06,-2.508 6.62,-0.543 13.29,-0.722 20.06,-0.422 8.41,0.579 16.87,1.844 25.32,3.786 8.39,1.972 16.75,4.781 24.85,8.449 7.59,3.371 15.3,7.719 23,13.078 7.74,5.348 15.45,11.519 22.99,18.574 5.32,5.082 10.65,10.567 15.86,16.445 5.17,5.907 10.34,12.254 15.39,18.977 l 14.33,-5.48 -38.81,-92.821 h -248.97 v 13.082 l 36.77,9.696 v 248.121 l -38.45,10.543 v 13.07 H 2513"
         style="fill:#b20d35;fill-opacity:1;fill-rule:nonzero;stroke:none"
         id="path196"
         inkscape:connector-curvature="0" /><path
         d="m 2670.32,920.711 143.46,-233.75 v 209.281 l -42.62,11.399 v 12.226 h 105.07 v -13.094 l -37.99,-10.531 V 624.938 h -38.82 L 2638.67,886.52 V 650.277 l 43.05,-11.843 v -12.645 h -105.48 v 12.645 l 38.39,10.117 v 247.691 l -38.39,10.531 v 13.938 h 94.08"
         style="fill:#b20d35;fill-opacity:1;fill-rule:nonzero;stroke:none"
         id="path198"
         inkscape:connector-curvature="0" /><path
         d="m 3113.97,839.613 -11.22,-5.625 -31.67,35.305 c -5.37,4.012 -10.43,7.75 -15.29,11.242 -4.75,3.473 -9.59,6.531 -14.4,9.211 -5.63,2.957 -11.46,5.34 -17.43,7.223 -6.05,1.875 -12.67,2.941 -19.85,3.191 -6.2,0.285 -12.29,-0.097 -18.5,-1.191 -6.15,-1.071 -11.88,-2.668 -17.26,-4.785 -5.64,-2.422 -10.55,-5.364 -14.82,-8.84 -4.29,-3.504 -7.59,-7.625 -10.02,-12.457 -2.67,-6.16 -4.05,-11.625 -4.05,-16.457 0,-4.782 0.84,-9.133 2.42,-13.008 1.63,-3.895 3.84,-7.234 6.64,-10.051 2.84,-2.789 5.68,-5.262 8.6,-7.422 6.43,-4.539 13.25,-8.203 20.51,-11.019 7.2,-2.789 14.55,-5.137 22.02,-7.012 8.6,-2.16 17.27,-4.098 26.12,-5.813 8.77,-1.757 17.46,-3.675 26.05,-5.816 7.75,-2.141 15.24,-4.363 22.47,-6.625 7.23,-2.289 13.87,-5.023 20.05,-8.215 6.15,-3.219 11.73,-6.965 16.84,-11.242 5.09,-4.312 9.51,-9.394 13.23,-15.23 3.47,-5.36 5.97,-11.332 7.45,-17.875 1.44,-6.551 2.19,-13.036 2.19,-19.434 0,-6.445 -0.75,-12.645 -2.19,-18.66 -1.48,-6.031 -3.16,-11.324 -5.01,-15.856 -3.47,-6.949 -7.57,-13.254 -12.25,-18.851 -4.72,-5.617 -9.82,-10.578 -15.46,-14.832 -6.4,-4.828 -13.07,-8.856 -20.05,-12.031 -6.94,-3.243 -13.79,-5.77 -20.46,-7.625 -6.15,-1.879 -12.15,-3.153 -18.06,-3.801 -5.91,-0.684 -11.6,-1.02 -17.23,-1.02 -5.63,0.274 -11.38,0.735 -17.26,1.406 -5.87,0.657 -11.88,1.411 -18.04,2.204 -4.8,0.796 -9.76,2.148 -14.88,3.992 -5.05,1.886 -10.13,4.011 -15.24,6.441 -3.72,1.871 -7.47,3.86 -11.21,6.035 -3.78,2.102 -7.34,4.125 -10.82,5.977 l -5.62,-19.246 h -17.26 l -26.06,94.676 14.85,2.406 c 3.72,-6.688 7.73,-13.18 11.98,-19.457 4.31,-6.289 8.74,-12.348 13.27,-18.238 4.83,-5.879 9.98,-11.446 15.47,-16.641 5.49,-5.234 11.52,-10.004 18.26,-14.262 6.65,-4.281 13.42,-7.621 20.23,-10.008 6.83,-2.433 13.6,-4.035 20.23,-4.82 6.7,-0.816 13.18,-1.086 19.46,-0.816 6.3,0.25 12.4,0.949 18.29,2.007 6.67,1.055 12.83,3.086 18.48,6.016 5.58,2.949 10.51,6.277 14.81,10.024 4.55,4.019 8.35,8.343 11.45,13.046 3.02,4.672 5.26,9.434 6.63,14.25 1.84,6.684 2.76,12.832 2.76,18.442 0,5.64 -0.9,10.621 -2.61,15.047 -1.74,4.414 -4.15,8.34 -7.44,11.808 -3.16,3.473 -6.77,6.305 -10.79,8.446 -7.24,3.449 -14.54,6.406 -21.84,8.839 -7.4,2.411 -14.8,4.52 -22.3,6.391 -7.75,1.856 -15.45,3.559 -23.09,5.012 -7.55,1.476 -15.14,3.144 -22.61,5.023 -8.04,1.863 -15.99,4.278 -23.85,7.227 -7.96,2.929 -15.25,6.133 -21.92,9.636 -6.71,3.731 -12.59,7.762 -17.85,12.04 -5.19,4.261 -9.02,8.671 -11.45,13.214 -3.19,5.621 -5.42,11.5 -6.61,17.668 -1.18,6.157 -1.78,12.168 -1.78,18.051 0.24,8 1.71,15.637 4.42,22.852 2.66,7.226 6.26,13.672 10.83,19.261 5.35,6.422 11.35,11.692 18.01,15.856 6.72,4.133 13.8,7.281 21.29,9.433 8.53,2.641 17.37,4.204 26.45,4.606 9.12,0.379 18.24,0.332 27.29,-0.219 5.89,-0.543 11.53,-1.383 16.85,-2.605 5.33,-1.192 10.51,-2.676 15.45,-4.395 4.92,-1.746 9.92,-3.691 14.87,-5.808 4.92,-2.161 10.09,-4.434 15.41,-6.84 l 4.44,13.644 h 14.84 l 24.84,-73"
         style="fill:#b20d35;fill-opacity:1;fill-rule:nonzero;stroke:none"
         id="path200"
         inkscape:connector-curvature="0" /><path
         d="m 1055.16,323.102 v -9.922 h -29.74 v -79.942 h -10.04 v 79.942 h -29.614 v 9.922 h 69.394"
         style="fill:#bbbaba;fill-opacity:1;fill-rule:nonzero;stroke:none"
         id="path202"
         inkscape:connector-curvature="0" /><path
         d="m 1090.43,323.102 v -38.161 h 49.7 v 38.161 h 10.04 v -89.864 h -10.04 v 41.543 h -49.7 v -41.543 h -10.29 v 89.864 h 10.29"
         style="fill:#bbbaba;fill-opacity:1;fill-rule:nonzero;stroke:none"
         id="path204"
         inkscape:connector-curvature="0" /><path
         d="m 1247.81,323.102 v -9.922 h -55.85 v -27.102 h 52.7 V 275.91 h -52.7 v -32.762 h 55.97 v -9.91 h -66.01 v 89.864 h 65.89"
         style="fill:#bbbaba;fill-opacity:1;fill-rule:nonzero;stroke:none"
         id="path206"
         inkscape:connector-curvature="0" /><path
         d="m 1335.41,323.102 v -89.864 h -10.3 v 89.864 h 10.3"
         style="fill:#bbbaba;fill-opacity:1;fill-rule:nonzero;stroke:none"
         id="path208"
         inkscape:connector-curvature="0" /><path
         d="m 1368.54,323.102 h 9.67 l 51.45,-72.543 v 72.543 h 9.16 v -89.864 h -9.66 l -51.46,71.793 v -71.793 h -9.16 v 89.864"
         style="fill:#bbbaba;fill-opacity:1;fill-rule:nonzero;stroke:none"
         id="path210"
         inkscape:connector-curvature="0" /><path
         d="m 1470.32,323.102 h 9.67 l 51.45,-72.543 v 72.543 h 9.16 v -89.864 h -9.67 l -51.45,71.793 v -71.793 h -9.16 v 89.864"
         style="fill:#bbbaba;fill-opacity:1;fill-rule:nonzero;stroke:none"
         id="path212"
         inkscape:connector-curvature="0" /><path
         d="m 1611.5,314.941 c -3.86,0 -7.71,-0.652 -11.55,-1.941 -3.85,-1.301 -7.3,-3.391 -10.36,-6.281 -3.05,-2.879 -5.54,-6.649 -7.47,-11.289 -1.92,-4.649 -2.88,-10.36 -2.88,-17.141 0,-6.769 0.96,-12.508 2.88,-17.187 1.93,-4.692 4.42,-8.473 7.47,-11.364 3.06,-2.879 6.51,-4.976 10.36,-6.269 3.84,-1.297 7.69,-1.949 11.55,-1.949 3.93,0 7.78,0.652 11.55,1.949 3.75,1.293 7.11,3.41 10.04,6.34 2.93,2.921 5.29,6.73 7.09,11.421 1.79,4.68 2.69,10.372 2.69,17.059 0,6.781 -0.92,12.492 -2.75,17.141 -1.86,4.64 -4.24,8.41 -7.17,11.289 -2.93,2.89 -6.27,4.98 -10.04,6.281 -3.77,1.289 -7.58,1.941 -11.41,1.941 z m 0,9.918 c 6.27,0 11.98,-0.949 17.13,-2.828 5.14,-1.883 9.53,-4.75 13.17,-8.601 3.65,-3.852 6.46,-8.7 8.47,-14.559 2.02,-5.851 3.01,-12.711 3.01,-20.582 0,-7.859 -0.98,-14.699 -2.95,-20.508 -1.95,-5.82 -4.74,-10.672 -8.34,-14.562 -3.59,-3.891 -7.99,-6.797 -13.18,-8.731 -5.18,-1.918 -10.96,-2.879 -17.31,-2.879 -6.54,0 -12.43,0.981 -17.7,2.95 -5.27,1.961 -9.77,4.89 -13.49,8.781 -3.72,3.89 -6.59,8.738 -8.6,14.558 -2.01,5.813 -3.01,12.622 -3.01,20.391 0,7.789 1.02,14.582 3.07,20.402 2.05,5.809 4.96,10.668 8.72,14.547 3.77,3.903 8.26,6.801 13.5,8.731 5.22,1.922 11.07,2.89 17.51,2.89"
         style="fill:#bbbaba;fill-opacity:1;fill-rule:nonzero;stroke:none"
         id="path214"
         inkscape:connector-curvature="0" /><path
         d="m 1710.51,243.148 h 4.39 l 25.73,79.954 h 11.3 l -30.76,-89.864 h -17.81 l -30.25,89.864 h 11.93 l 25.47,-79.954"
         style="fill:#bbbaba;fill-opacity:1;fill-rule:nonzero;stroke:none"
         id="path216"
         inkscape:connector-curvature="0" /><path
         d="m 1778.93,265.621 h 37.26 l -17.07,47.559 h -4.39 z m 40.64,-10.422 h -44.04 l -7.03,-21.961 h -11.29 l 31.25,89.864 h 17.81 l 32.13,-89.864 h -11.8 l -7.03,21.961"
         style="fill:#bbbaba;fill-opacity:1;fill-rule:nonzero;stroke:none"
         id="path218"
         inkscape:connector-curvature="0" /><path
         d="m 1915.33,323.102 v -9.922 h -29.72 v -79.942 h -10.06 v 79.942 h -29.61 v 9.922 h 69.39"
         style="fill:#bbbaba;fill-opacity:1;fill-rule:nonzero;stroke:none"
         id="path220"
         inkscape:connector-curvature="0" /><path
         d="m 1952.85,323.102 v -89.864 h -10.29 v 89.864 h 10.29"
         style="fill:#bbbaba;fill-opacity:1;fill-rule:nonzero;stroke:none"
         id="path222"
         inkscape:connector-curvature="0" /><path
         d="m 2025.41,314.941 c -3.87,0 -7.71,-0.652 -11.56,-1.941 -3.85,-1.301 -7.29,-3.391 -10.35,-6.281 -3.05,-2.879 -5.55,-6.649 -7.46,-11.289 -1.94,-4.649 -2.9,-10.36 -2.9,-17.141 0,-6.769 0.96,-12.508 2.9,-17.187 1.91,-4.692 4.41,-8.473 7.46,-11.364 3.06,-2.879 6.5,-4.976 10.35,-6.269 3.85,-1.297 7.69,-1.949 11.56,-1.949 3.93,0 7.77,0.652 11.54,1.949 3.75,1.293 7.11,3.41 10.04,6.34 2.93,2.921 5.3,6.73 7.09,11.421 1.8,4.68 2.7,10.372 2.7,17.059 0,6.781 -0.92,12.492 -2.76,17.141 -1.85,4.64 -4.23,8.41 -7.16,11.289 -2.93,2.89 -6.27,4.98 -10.04,6.281 -3.77,1.289 -7.58,1.941 -11.41,1.941 z m 0,9.918 c 6.27,0 11.97,-0.949 17.13,-2.828 5.14,-1.883 9.53,-4.75 13.16,-8.601 3.66,-3.852 6.47,-8.7 8.48,-14.559 2.01,-5.851 3.01,-12.711 3.01,-20.582 0,-7.859 -0.98,-14.699 -2.95,-20.508 -1.95,-5.82 -4.75,-10.672 -8.34,-14.562 -3.6,-3.891 -7.99,-6.797 -13.19,-8.731 -5.17,-1.918 -10.95,-2.879 -17.3,-2.879 -6.54,0 -12.44,0.981 -17.7,2.95 -5.27,1.961 -9.78,4.89 -13.49,8.781 -3.73,3.89 -6.6,8.738 -8.59,14.558 -2.02,5.813 -3.03,12.622 -3.03,20.391 0,7.789 1.03,14.582 3.08,20.402 2.05,5.809 4.96,10.668 8.71,14.547 3.77,3.903 8.27,6.801 13.5,8.731 5.24,1.922 11.07,2.89 17.52,2.89"
         style="fill:#bbbaba;fill-opacity:1;fill-rule:nonzero;stroke:none"
         id="path224"
         inkscape:connector-curvature="0" /><path
         d="m 2094.8,323.102 h 9.67 l 51.45,-72.543 v 72.543 h 9.16 v -89.864 h -9.67 l -51.45,71.793 v -71.793 h -9.16 v 89.864"
         style="fill:#bbbaba;fill-opacity:1;fill-rule:nonzero;stroke:none"
         id="path226"
         inkscape:connector-curvature="0" /><path
         d="m 2252.54,323.102 v -62.383 c 0,-3.18 0.7,-5.957 2.09,-8.34 1.39,-2.391 3.24,-4.391 5.55,-6.027 2.32,-1.633 4.98,-2.84 8,-3.633 3.03,-0.797 6.23,-1.199 9.59,-1.199 3.36,0 6.59,0.441 9.65,1.32 3.07,0.879 5.76,2.129 8.07,3.762 2.32,1.628 4.16,3.648 5.55,6.027 1.38,2.383 2.09,5.082 2.09,8.09 v 62.383 h 10.03 V 258.59 c 0,-4.52 -1.07,-8.469 -3.2,-11.86 -2.13,-3.39 -4.88,-6.191 -8.28,-8.41 -3.38,-2.211 -7.19,-3.89 -11.43,-5.019 -4.21,-1.121 -8.37,-1.692 -12.48,-1.692 -4.1,0 -8.24,0.571 -12.42,1.692 -4.18,1.129 -7.97,2.808 -11.37,5.019 -3.37,2.219 -6.13,5.02 -8.28,8.41 -2.13,3.391 -3.2,7.34 -3.2,11.86 v 64.512 h 10.04"
         style="fill:#bbbaba;fill-opacity:1;fill-rule:nonzero;stroke:none"
         id="path228"
         inkscape:connector-curvature="0" /><path
         d="m 2344.41,323.102 h 9.67 l 51.45,-72.543 v 72.543 h 9.16 v -89.864 h -9.67 l -51.45,71.793 v -71.793 h -9.16 v 89.864"
         style="fill:#bbbaba;fill-opacity:1;fill-rule:nonzero;stroke:none"
         id="path230"
         inkscape:connector-curvature="0" /><path
         d="m 2459.12,323.102 v -89.864 h -10.29 v 89.864 h 10.29"
         style="fill:#bbbaba;fill-opacity:1;fill-rule:nonzero;stroke:none"
         id="path232"
         inkscape:connector-curvature="0" /><path
         d="m 2521.88,243.148 h 4.39 l 25.72,79.954 h 11.29 l -30.74,-89.864 h -17.81 l -30.26,89.864 h 11.92 l 25.49,-79.954"
         style="fill:#bbbaba;fill-opacity:1;fill-rule:nonzero;stroke:none"
         id="path234"
         inkscape:connector-curvature="0" /><path
         d="m 2653.4,323.102 v -9.922 h -55.86 v -27.102 h 52.71 V 275.91 h -52.71 v -32.762 h 55.98 v -9.91 h -66.02 v 89.864 h 65.9"
         style="fill:#bbbaba;fill-opacity:1;fill-rule:nonzero;stroke:none"
         id="path236"
         inkscape:connector-curvature="0" /><path
         d="m 2725.64,283.691 c 2.35,0 4.65,0.368 6.92,1.129 2.26,0.75 4.24,1.821 5.92,3.2 1.68,1.378 3.02,3.082 4.08,5.082 1.05,2.007 1.58,4.308 1.58,6.91 0,4.758 -1.7,8.148 -5.1,10.16 -3.4,2.008 -8.02,3.008 -13.9,3.008 -0.92,0 -2.27,0 -4.03,0 -1.75,0 -3.73,0 -5.91,0 -2.19,0 -4.48,-0.02 -6.86,-0.059 -2.38,-0.043 -4.67,-0.09 -6.86,-0.121 -2.18,-0.051 -4.16,-0.09 -5.91,-0.129 -1.76,-0.051 -3.11,-0.109 -4.03,-0.191 v -28.989 z m -8.16,-8.531 h -25.94 v -41.922 h -10.04 v 89.481 c 2.02,0.09 4.96,0.152 8.85,0.191 3.89,0.039 7.99,0.078 12.31,0.121 4.29,0.039 8.47,0.071 12.48,0.071 4.02,0 7.15,0 9.41,0 9.3,0 16.6,-1.743 21.97,-5.211 5.36,-3.469 8.03,-9.102 8.03,-16.879 0,-3.684 -0.66,-7.051 -2.01,-10.102 -1.35,-3.058 -3.18,-5.711 -5.53,-7.969 -2.34,-2.261 -5.08,-4.062 -8.22,-5.402 -3.13,-1.34 -6.5,-2.09 -10.1,-2.258 l 31.62,-42.043 h -12.91 l -29.92,41.922"
         style="fill:#bbbaba;fill-opacity:1;fill-rule:nonzero;stroke:none"
         id="path238"
         inkscape:connector-curvature="0" /><path
         d="m 2815.49,324.859 c 2.85,0 6.09,-0.359 9.74,-1.07 3.66,-0.719 7.13,-2.199 10.43,-4.461 3.32,-2.258 6.23,-5.476 8.73,-9.656 2.52,-4.184 4.11,-9.711 4.79,-16.57 h -10.43 c -0.92,5.019 -2.23,8.976 -3.91,11.859 -1.66,2.891 -3.57,5.059 -5.72,6.527 -2.13,1.461 -4.41,2.403 -6.85,2.821 -2.45,0.421 -4.83,0.632 -7.17,0.632 -2.78,0 -5.35,-0.382 -7.76,-1.132 -2.38,-0.75 -4.47,-1.778 -6.29,-3.079 -1.79,-1.289 -3.22,-2.82 -4.27,-4.582 -1.06,-1.75 -1.57,-3.628 -1.57,-5.636 0,-2.762 0.79,-4.981 2.39,-6.66 1.6,-1.672 3.69,-3.09 6.29,-4.262 2.59,-1.168 5.54,-2.141 8.86,-2.891 3.32,-0.75 6.68,-1.57 10.12,-2.437 3.44,-0.883 6.82,-1.934 10.14,-3.141 3.3,-1.223 6.27,-2.781 8.87,-4.711 2.59,-1.93 4.68,-4.371 6.28,-7.34 1.59,-2.968 2.39,-6.629 2.39,-10.98 0,-4.02 -0.86,-7.66 -2.56,-10.918 -1.72,-3.262 -4.18,-6.043 -7.35,-8.344 -3.18,-2.308 -7.01,-4.09 -11.48,-5.34 -4.47,-1.258 -9.53,-1.879 -15.14,-1.879 -5.84,0 -10.86,0.922 -15.06,2.762 -4.17,1.84 -7.63,4.309 -10.35,7.399 -2.71,3.101 -4.7,6.718 -5.95,10.859 -1.25,4.141 -1.88,8.512 -1.88,13.109 h 10.04 c 0,-4.179 0.59,-7.777 1.76,-10.789 1.17,-3.008 2.79,-5.519 4.84,-7.527 2.05,-2.012 4.49,-3.492 7.31,-4.453 2.79,-0.969 5.88,-1.449 9.23,-1.449 3.77,0 7.25,0.289 10.4,0.878 3.14,0.59 5.84,1.532 8.1,2.832 2.27,1.29 4.02,2.969 5.29,5.02 1.25,2.039 1.88,4.531 1.88,7.461 0,4.269 -1.35,7.551 -4.02,9.859 -2.68,2.301 -6.06,4.11 -10.12,5.45 -4.08,1.339 -8.48,2.511 -13.22,3.519 -4.73,1 -9.14,2.359 -13.21,4.082 -4.06,1.707 -7.44,4.09 -10.11,7.149 -2.7,3.05 -4.03,7.3 -4.03,12.742 0,4.179 0.9,7.797 2.7,10.847 1.79,3.063 4.16,5.59 7.05,7.602 2.89,2 6.15,3.488 9.8,4.449 3.66,0.961 7.33,1.449 11.02,1.449"
         style="fill:#bbbaba;fill-opacity:1;fill-rule:nonzero;stroke:none"
         id="path240"
         inkscape:connector-curvature="0" /><path
         d="m 2891.6,323.102 v -89.864 h -10.29 v 89.864 h 10.29"
         style="fill:#bbbaba;fill-opacity:1;fill-rule:nonzero;stroke:none"
         id="path242"
         inkscape:connector-curvature="0" /><path
         d="m 2987.97,323.102 v -9.922 h -29.73 v -79.942 h -10.06 v 79.942 h -29.61 v 9.922 h 69.4"
         style="fill:#bbbaba;fill-opacity:1;fill-rule:nonzero;stroke:none"
         id="path244"
         inkscape:connector-curvature="0" /><path
         d="m 3043.77,278.922 26.66,44.18 h 12.3 l -33.88,-53.84 v -36.024 h -10.04 v 36.024 l -34.14,53.84 h 12.56 l 26.54,-44.18"
         style="fill:#bbbaba;fill-opacity:1;fill-rule:nonzero;stroke:none"
         id="path246"
         inkscape:connector-curvature="0" /><path
         d="m 3123.59,303.93 c 3.27,0 4.91,1.832 4.91,5.492 0,1.558 -0.36,2.68 -1.04,3.367 -0.68,0.68 -2.03,1.02 -4.02,1.02 -1.76,0 -3.4,-0.071 -4.9,-0.219 v -9.66 z m -3,-3.578 h -2.05 v -14.93 h -4.24 v 31.898 c 1.4,0.2 2.87,0.352 4.35,0.481 1.49,0.121 3.03,0.179 4.65,0.179 3.4,0 5.86,-0.652 7.34,-1.941 1.49,-1.289 2.23,-3.277 2.23,-5.961 0,-2.777 -0.72,-5.039 -2.15,-6.769 -1.44,-1.731 -3.26,-2.7 -5.45,-2.887 l 9.57,-15 h -5.11 z m 2.93,23.558 c -2.35,0 -4.67,-0.379 -7,-1.14 -2.32,-0.758 -4.41,-2.02 -6.29,-3.801 -1.87,-1.789 -3.39,-4.11 -4.57,-6.989 -1.17,-2.878 -1.75,-6.441 -1.75,-10.679 0,-4.102 0.56,-7.571 1.68,-10.43 1.11,-2.851 2.59,-5.18 4.43,-6.992 1.82,-1.801 3.91,-3.117 6.25,-3.949 2.34,-0.828 4.75,-1.239 7.25,-1.239 2.44,0 4.8,0.411 7.09,1.239 2.3,0.832 4.31,2.148 6.07,3.949 1.76,1.812 3.16,4.152 4.22,7.031 1.03,2.879 1.56,6.34 1.56,10.391 0,4.187 -0.53,7.73 -1.6,10.609 -1.07,2.879 -2.5,5.199 -4.26,6.981 -1.76,1.789 -3.77,3.07 -6.07,3.847 -2.29,0.782 -4.63,1.172 -7.01,1.172 z m 0,4.531 c 7.4,0 13.2,-2.242 17.38,-6.73 4.16,-4.492 6.25,-11.289 6.25,-20.41 0,-9.082 -2.05,-15.879 -6.15,-20.41 -4.11,-4.539 -9.93,-6.813 -17.48,-6.813 -3.66,0 -6.98,0.551 -9.97,1.641 -2.96,1.101 -5.5,2.769 -7.63,5.019 -2.13,2.242 -3.75,5.071 -4.9,8.492 -1.16,3.411 -1.72,7.43 -1.72,12.071 0,4.48 0.54,8.418 1.64,11.808 1.09,3.403 2.69,6.219 4.8,8.493 2.09,2.269 4.63,3.976 7.64,5.128 3.01,1.141 6.39,1.711 10.14,1.711"
         style="fill:#bbbaba;fill-opacity:1;fill-rule:nonzero;stroke:none"
         id="path248"
         inkscape:connector-curvature="0" /></g></g></svg>