<?xml version="1.0" encoding="UTF-8" standalone="no"?>
<!-- Created with Inkscape (http://www.inkscape.org/) -->

<svg
   xmlns:dc="http://purl.org/dc/elements/1.1/"
   xmlns:cc="http://creativecommons.org/ns#"
   xmlns:rdf="http://www.w3.org/1999/02/22-rdf-syntax-ns#"
   xmlns:svg="http://www.w3.org/2000/svg"
   xmlns="http://www.w3.org/2000/svg"
   xmlns:sodipodi="http://sodipodi.sourceforge.net/DTD/sodipodi-0.dtd"
   xmlns:inkscape="http://www.inkscape.org/namespaces/inkscape"
   version="1.1"
   id="svg2"
   xml:space="preserve"
   width="419.64001"
   height="178.69333"
   viewBox="0 0 419.64001 178.69333"
   sodipodi:docname="Stevens-Official-WhiteKO-R.svg"
   inkscape:version="0.92.4 5da689c313, 2019-01-14"><metadata
     id="metadata8"><rdf:RDF><cc:Work
         rdf:about=""><dc:format>image/svg+xml</dc:format><dc:type
           rdf:resource="http://purl.org/dc/dcmitype/StillImage" /><dc:title></dc:title></cc:Work></rdf:RDF></metadata><defs
     id="defs6" /><sodipodi:namedview
     pagecolor="#ffffff"
     bordercolor="#666666"
     borderopacity="1"
     objecttolerance="10"
     gridtolerance="10"
     guidetolerance="10"
     inkscape:pageopacity="0"
     inkscape:pageshadow="2"
     inkscape:window-width="952"
     inkscape:window-height="2088"
     id="namedview4"
     showgrid="false"
     inkscape:zoom="1.3206984"
     inkscape:cx="211.33436"
     inkscape:cy="89.346664"
     inkscape:window-x="1998"
     inkscape:window-y="30"
     inkscape:window-maximized="0"
     inkscape:current-layer="g10" /><g
     id="g10"
     inkscape:groupmode="layer"
     inkscape:label="ink_ext_XXXXXX"
     transform="matrix(1.3333333,0,0,-1.3333333,0,178.69333)"><g
       id="g12"
       transform="scale(0.1)"><path
         d="M 573.027,228.57 C 498.723,174.449 424.805,120.59 424.563,120.398 v 0 l -3.477,-2.429 0.125,-105.3088 c 14.309,10.4687 53.894,39.4882 100.449,73.6679 v 0 C 582.668,131.051 662.102,189.379 736.68,244.391 v 0 l -0.02,0.019 c 0.188,0.102 0.41,0.281 0.774,0.531 v 0 c 0.671,0.489 1.675,1.207 2.925,2.161 v 0 c 2.539,1.898 6.172,4.726 10.539,8.296 v 0 c 8.719,7.141 20.379,17.411 31.922,29.801 v 0 c 23.254,24.762 45.852,58.055 45.735,90.836 v 0 c 0.039,38.711 -30.657,80.938 -137.61,113.313 v 0 l -0.601,-9.641 c 52.82,-27.891 70.855,-56.016 70.933,-81.094 v 0 c -0.332,-28.164 -22.039,-48.476 -34.382,-57.988 v 0 l 0.07,-0.137 -4.238,-2.968 v 0 c -1.372,-0.942 -75.723,-55.11 -149.7,-108.95 z m -151.672,-101.281 -0.996,2.949 c 0.079,0.032 256.118,186.461 292.297,212.731 v 0 l -0.09,0.097 3.872,2.657 c 0.195,0.175 0.359,0.261 0.371,0.312 v 0 -0.027 l 0.039,0.027 c 9.961,6.758 34.382,27.598 34.097,52.578 v 0 c 0.024,19.832 -14.461,45.586 -68.34,73.496 v 0 l -2.976,1.524 1.809,29.265 6.16,-1.793 C 800.742,468.508 838.816,422.344 838.84,376.035 v 0 C 837.938,301.129 743.066,236.68 742.434,235.82 v 0 C 594.141,126.41 424.387,2.25 424.387,2.25 v 0 L 421.309,0 l -0.098,4.35938 -1.223,111.33962 1.367,11.59"
         style="fill:#ffffff;fill-opacity:1;fill-rule:nonzero;stroke:none"
         id="path14"
         inkscape:connector-curvature="0" /><path
         d="m 92.9492,355.156 v 215.703 c 0,17.305 0.8477,49.043 0.8477,65.539 C 67.5469,646.016 19.6563,677.012 0,708.633 V 300.621 L 421.355,0.179688 V 130.898 L 92.9492,355.156"
         style="fill:#ffffff;fill-opacity:1;fill-rule:nonzero;stroke:none"
         id="path16"
         inkscape:connector-curvature="0" /><path
         d="m 528.984,481.66 c -5.339,0 -10.714,-4.785 -10.714,-10.84 v -45.293 c 0,-5.879 5.375,-10.918 10.714,-10.918 5.735,0 10.965,5.039 10.965,10.918 v 45.293 c 0,5.86 -5.136,10.84 -10.965,10.84 z m 29.246,-47.344 c 0,-13.964 -13.289,-25.363 -29.246,-25.363 -15.703,0 -28.964,11.399 -28.964,25.363 v 27.586 c 0,13.989 13.476,25.383 28.964,25.383 15.829,0 29.246,-11.394 29.246,-25.383 z M 451.57,409.871 h -19.304 l 28.418,70.871 h -22.871 c -3.079,0 -5.696,-2.285 -5.696,-5.097 h -3.512 v 10.156 h 53.661 z m 4.258,-103.441 c -10.594,-0.34 -21.199,-4.93 -29.297,-13.899 -8.093,-8.941 -12.383,-20.601 -12.664,-32.32 h -1.133 c -0.273,11.719 -4.531,23.379 -12.605,32.32 -8.117,8.969 -18.711,13.559 -29.375,13.899 v 1.211 c 10.664,0.308 21.258,4.961 29.375,13.898 8.074,8.949 12.332,20.57 12.605,32.27 h 1.133 c 0.281,-11.7 4.571,-23.321 12.664,-32.27 8.098,-8.937 18.703,-13.59 29.297,-13.898 z M 351.316,432.051 c 0,9.355 6.555,17.129 15.688,21.394 -6.106,3.274 -10.078,8.801 -10.078,15.266 0,10 10.308,18.184 22.969,18.184 12.695,0 23.027,-8.184 23.027,-18.184 0,-6.465 -4.289,-12.305 -10.234,-15.371 9.109,-4.277 15.808,-11.934 15.808,-21.289 0,-11.613 -12.781,-23.36 -28.601,-23.36 -15.813,0 -28.579,11.747 -28.579,23.36 z m -19.453,-22.18 h -52.5 v 4.914 h 11.575 c 3.027,0 5.605,2.285 5.605,5.098 v 57.265 c 0,2.891 -2.988,5.137 -7.219,5.137 v 3.516 h 25.489 v -65.918 c 0,-2.813 2.531,-5.098 5.57,-5.098 h 11.48 z m 89.985,137.883 h 1.297 c -85.5,12.715 -215.071,48.75 -301.622,80.703 V 362.734 L 420.637,164.078 721.184,374.785 V 490 c -64.164,25.723 -188.325,41.25 -299.336,57.754 z m -41.953,-92.246 c 4.023,0 7.339,3.008 7.339,6.738 v 12.832 c 0,3.711 -3.316,6.777 -7.339,6.777 -4.004,0 -7.258,-3.066 -7.258,-6.777 v -12.832 c 0,-3.73 3.254,-6.738 7.258,-6.738 z m 9.609,-32.813 v 18.809 c 0,4.844 -4.367,8.887 -9.609,8.887 -5.239,0 -9.614,-4.043 -9.614,-8.887 v -18.809 c 0,-4.843 4.375,-8.886 9.614,-8.886 5.242,0 9.609,4.043 9.609,8.886"
         style="fill:#ffffff;fill-opacity:1;fill-rule:nonzero;stroke:none"
         id="path18"
         inkscape:connector-curvature="0" /><path
         d="m 122.922,951.68 -2.524,-1.176"
         style="fill:#960a2c;fill-opacity:1;fill-rule:nonzero;stroke:none"
         id="path20"
         inkscape:connector-curvature="0" /><path
         d="m 564.063,1013.11 2.058,4.74 -2.058,-4.74 z M 837.512,558.75 v 336.559 l -265.903,114.561 3.442,-85.046 179.871,-72.265 V 601.453 c 0,-0.613 0.051,-1.277 0.09,-1.922 v 0 c 28.203,-10.215 57.398,-23.437 82.5,-40.781 z m 2.066,-14.219 c -26.441,20.039 -59.363,35.11 -91.094,46.36 v 0 l -2.964,1.074 -0.415,3.094 c -0.281,2.058 -0.457,4.179 -0.503,6.394 v 0 244.106 l -179.614,72.183 -4.031,99.928 -0.312,8.15 287.187,-123.707 v -363.89 l -8.254,6.308 v 0"
         style="fill:#ffffff;fill-opacity:1;fill-rule:nonzero;stroke:none"
         id="path22"
         inkscape:connector-curvature="0" /><path
         d="m 420.227,1320.98 c -4.094,0 -7.493,-1.3 -8.887,-3.13 -0.18,0.25 -0.317,0.47 -0.41,0.72 0.508,-1.35 2.168,-2.5 4.351,-3.2 1.203,1.08 3.012,1.78 4.946,1.78 1.992,0 3.726,-0.7 4.91,-1.78 1.855,0.57 3.203,1.42 3.972,2.48 -1.414,1.83 -4.832,3.13 -8.882,3.13"
         style="fill:#ffffff;fill-opacity:1;fill-rule:nonzero;stroke:none"
         id="path24"
         inkscape:connector-curvature="0" /><path
         d="m 413.457,1323.05 c 1.711,0.91 4.141,1.48 6.77,1.48 2.339,0 4.461,-0.49 6.16,-1.22 0.847,0.79 1.496,1.71 1.804,2.74 -0.906,2.91 -4.351,5.08 -8.406,5.08 -4.133,0 -7.527,-2.17 -8.445,-5.09 -0.18,0.51 -0.293,1.01 -0.293,1.56 0,-1.74 0.933,-3.35 2.41,-4.55"
         style="fill:#ffffff;fill-opacity:1;fill-rule:nonzero;stroke:none"
         id="path26"
         inkscape:connector-curvature="0" /><path
         d="m 417.168,1333.94 c 0.84,0.2 1.687,0.34 2.617,0.34 0.723,0 1.426,-0.1 2.149,-0.24 0.593,0.66 0.988,1.55 0.988,2.54 0,2.02 -1.567,3.63 -3.418,3.63 -1.906,0 -3.469,-1.61 -3.469,-3.63 0,-1.07 0.449,-1.97 1.133,-2.64"
         style="fill:#ffffff;fill-opacity:1;fill-rule:nonzero;stroke:none"
         id="path28"
         inkscape:connector-curvature="0" /><path
         d="m 328.43,921.246 11.636,-67.207 1.387,-3.293 1.281,2.699 1.25,66.481 34.844,-10.363 2,1.671 -37.976,13.125 z m 258.941,-82.043 17.317,-61.859 -0.918,57.179 24.89,-6.07 1.469,1.16 -27.199,9.59 z m -153.555,-31.562 -149.753,42.449 -0.098,-0.067 v -4.781 l 149.824,-41.359 z m 279.329,-35.243 -20.774,6.426 h -16.285 l 14.09,-3.961 2.195,-46.953 2.629,-2.668 -0.488,48.766 17.617,-3.817 z M 701.047,653.992 c 0.887,4.094 2.906,16.555 12.664,20.598 0,0 9.668,-11.629 10.984,-25.02 z m -33.762,101.106 -90.332,22.199 -7.41,123.305 48.887,-17.844 -4.492,-7.543 z M 636.77,687.422 c 0,0 0.828,11.719 8.789,18.828 0,0 7.488,-6.504 9.461,-20.527 0.007,-0.41 0.175,-0.821 0.175,-1.25 z m 18.203,-65.496 c -5.703,1.355 -11.703,2.488 -17.895,3.894 v 55.821 l 17.895,-2.735 z m -29.035,6.14 c -6.067,1.321 -12.375,2.356 -18.86,3.672 v 55.801 l 18.86,-2.91 z m -9.833,84.344 c 0,0 7.665,-6.512 9.665,-20.523 0.07,-0.41 0.168,-0.793 0.168,-1.223 l -18.86,2.93 c 0,0 0.813,11.699 9.027,18.816 z m -88.039,-67.449 c -5.461,0.742 -12.375,1.699 -19.66,2.695 V 712.5 c 0,0 -0.23,9.082 10.442,17.539 0,0 7.343,-10.039 9.199,-22.363 0.09,-0.41 0.019,-0.879 0.019,-1.348 z m -30.332,95.613 c 0,5.031 3.516,9.121 7.832,9.121 4.317,0 7.832,-4.09 7.832,-9.121 0,-5.027 -3.515,-9.129 -7.832,-9.129 -4.316,0 -7.832,4.102 -7.832,9.129 z m -127.214,5.942 c 0,0 -0.098,14.808 12.378,24.203 0,0 8.364,-8.946 10.825,-26.344 0.078,-0.508 0.195,-0.996 0.195,-1.531 z m -41.223,8.113 c 0,0 -0.125,15.609 12.976,25.5 0,0 8.872,-9.41 11.45,-27.746 0.047,-0.528 0.222,-1.055 0.222,-1.61 z m 96.687,326.621 -0.437,17.97 3.625,7.54 140.34,-63.8 v -9.44 l -6.797,-3.89 0.422,-6.7 z m 115.957,-156.246 -19.656,6.976 v 72.3 c 0,0 -0.265,9.08 10.442,17.53 0,0 7.324,-10.02 9.168,-22.33 0.078,-0.453 0.046,-0.902 0.046,-1.371 z m -31.187,11.086 -23.43,8.058 v 71.562 c 0,0 2.149,12.1 12.531,21.35 0,0 10.899,-14.93 10.899,-27.49 z m -34.895,12.301 -25.586,8.843 v 70.346 c 0,0 2.43,16.76 13.75,23.47 0,0 11.836,-16.82 11.836,-29.39 z m -188.254,-92.375 9.883,125.289 5.442,12.273 90.351,-32.488 -3.34,-7.567 37.176,-136.515 z m -1.011,143.695 0.027,24.339 -6.262,3.15 v 8.15 l 138.149,71.41 3.426,-8.91 4.023,-264.065 -32.598,120.258 1.184,2.695 v 0 l 1.441,3.434 -1.441,-3.434 2.383,0.727 -2.656,69.735 c -0.239,4.34 -6.497,20.81 -10.813,22.59 -4.199,-3.99 -9.016,-19.01 -8.555,-27.4 l 2.071,-49.402 -15.606,5.629 -1.211,32.293 c -0.285,4.09 -6.289,20.73 -10.82,22.61 -4.219,-4.03 -9.031,-18.99 -8.555,-27.42 l 0.852,-20.362 -12.824,4.621 -0.149,4.618 c -0.23,4.386 -6.258,20.723 -10.816,22.623 -4.223,-4.03 -7.422,-17.741 -8.02,-20.377 l -13.801,4.987 h -3.984 z m 58.023,113.569 v -16.92 l -2.984,-3.92 7.676,3.35 v 42.85 l 10.144,12.99 11.57,-1.24 v -45.09 l 5.012,2.2 0.293,46.61 20.613,-11.25 1.145,5.9 -20.984,10.76 24.597,10.37 15.098,-54.79 -120.359,-62.95 z m 90.473,58.44 -13.344,-52.09 -13.355,52.09 z m 6.433,0 22.942,-12.15 -19.133,-8.33 4.844,-5.36 20.508,6.83 v -42.02 l 6.093,-3.09 0.547,41.61 7.571,2.42 8.523,-10.38 v -42.07 l 8.457,-4.28 -3.074,3.96 v 24.44 l 50.476,-62.98 -122.121,55.07 z m -297.246,-421.935 43.621,-7.617 v -48.613 c -14.683,3.105 -34.929,7.258 -43.621,9.355 z m 23.028,39.086 c 0,0 22.707,-13.269 21.347,-36.5 l -43.339,7.856 c 0,0 -1.243,18.711 21.992,28.644 z m 462.226,60.539 -10.91,24.629 7.149,11.625 -55.047,20.863 -4.871,121.023 7.832,4.56 -0.793,13.67 -9.114,3.79 -65.339,81.3 0.097,8.84 9.735,0.99 -19.93,26.2 -17.957,-4.75 v 7.77 l -9.563,5.47 v -3.67 l -20.691,3.74 -35.805,1.08 -21.812,-4.82 0.093,2.23 -6.57,-4.03 v -9.64 l -0.293,0.17 -21.133,3.97 -20.058,-26.18 9.797,-0.98 v -19.7 l -67.563,-82.81 0.227,-8.86 6.64,-4.6 -0.363,-23.063 -43.609,-19.93 -30.492,10.308 -8.583,-3.707 38.965,-13.535 -0.031,0.028 42.043,19.781 5.891,-9.82 -9.844,-125.278 -49.055,-20.043 12.989,125.782 -1.946,9.285 -2.105,-9.715 -12.336,-124.785 -103.914,26.437 v 87.707 l -0.461,-0.195 V 708.73 c 17.617,-5.019 52.414,-13.027 105.344,-22.343 v 133.062 l -104.614,27.117 v 2.93 l 104.492,-27.094 0.122,0.059 v 3.93 l -0.5,0.129 -104.114,26.816 v 3.914 l 104.477,-26.914 57.847,23.762 0.649,-0.18 149.383,-42.359 v 0.605 l 18.742,-4.59 -0.141,68.809 c 0,0 3.325,14.207 13.75,23.445 0,0 11.836,-16.805 11.836,-29.394 0,-7.098 0.141,-55.512 0.188,-69.149 l 14.265,-3.515 v 68.878 c 0,0 2.129,12.098 12.551,21.336 0,0 10.93,-14.937 10.93,-27.492 v -68.461 l 12.945,-3.16 v 67.574 c 0,0 -0.23,9.098 10.461,17.555 0,0 7.332,-10.023 9.191,-22.336 0.047,-0.449 0.04,-0.918 0.04,-1.371 v -66.262 l 29.199,-7.156 0.039,-2.062 105.359,-26.102 -5.262,-2.539 -100.011,24.703 0.019,-2.141 98.489,-24.593 -3.657,-2.11 -96.902,24.313 0.027,0.183 -142.175,34.379 v 0.039 L 283.965,842.301 V 676.934 c -6.887,1.093 -14.11,2.148 -21.348,3.32 v 72.117 l -20.234,-5.262 0.605,-63.632 c 25.157,-4.239 53.899,-8.711 86.309,-13.262 v 76.484 l 24.648,-3.789 -0.273,-75.996 -16.77,2.266 c 10.825,-1.504 22.036,-3.008 33.664,-4.492 v 74.316 l 23.352,-3.613 v -73.653 l -18.75,2.344 c 20.328,-2.605 41.895,-5.215 64.668,-7.82 12.43,-1.418 24.363,-2.844 35.894,-4.309 -0.261,0.027 -0.527,0.098 -0.718,0.117 v 70.618 c 0,25.371 28.574,42.109 28.883,42.296 l 0.558,0.329 0.52,-0.434 c 1.265,-1.086 30.957,-27.125 30.957,-53.336 v -67.805 c -0.539,0.071 -1.211,0.16 -1.938,0.246 v 67.559 c 0,23.496 -25.769,47.836 -29.746,51.445 -4.031,-2.519 -27.351,-17.988 -27.351,-40.3 v -70.872 c 4.382,-0.554 8.652,-1.125 12.941,-1.699 -2.395,0.352 -4.699,0.672 -6.77,0.988 v 65.418 c 0,0 -0.261,9.082 10.43,17.559 0,0 7.344,-10.059 9.18,-22.383 0.066,-0.422 0.051,-0.886 0.051,-1.347 v -61.954 c 83.628,-11.445 141.121,-23.476 176.824,-32.324 l -1.492,122.578 h 0.234 l -0.234,4.036 6.668,3.875 0.128,4.648 -10.363,2.344 -43.203,91.328 95.012,-32.309 V 712.258 l -46.504,11.707 0.047,-3.496 46.457,-10.977 v -3.679 l -46.438,10.945 0.047,-1.621 46.391,-10.703 v -2.911 l -46.36,10.684 1.133,-96.504 c 7.735,-1.926 14.422,-3.711 20.047,-5.273 l -0.351,36.133 24.085,-4.336 c 0,-8.457 0.301,-24.786 0.426,-39.024 -1.148,0.36 -2.527,0.781 -3.972,1.231 3.054,-1.016 4.629,-1.563 4.629,-1.563 l 1.953,-0.625 V 815.621 Z M 228.359,685.977 c 4.551,-0.762 9.192,-1.575 14.024,-2.403 -4.981,0.852 -9.688,1.66 -14.024,2.403 z m 0,0 c -0.722,0.156 -1.472,0.293 -2.214,0.41 v 0 c 0.718,-0.117 1.492,-0.254 2.214,-0.41 z m 214.012,507.243 17.922,-12.55 0.477,17.75 v 1.13 l -24.454,13.96 h -31.589 l -21.27,-13.97 v -20.18 l 18.145,13.86 z M 645.84,701.121 c -2.625,0 -4.735,-2.879 -4.735,-6.441 0,-3.547 2.11,-6.418 4.735,-6.418 2.605,0 4.695,2.871 4.695,6.418 0,3.562 -2.09,6.441 -4.695,6.441 z m -304.207,71.395 c -3.86,0 -6.945,-3.739 -6.945,-8.383 0,-4.641 3.085,-8.391 6.945,-8.391 3.847,0 6.953,3.75 6.953,8.391 0,4.644 -3.106,8.383 -6.953,8.383 z m 40.613,-9.036 c -3.652,0 -6.594,-3.554 -6.594,-7.953 0,-4.414 2.942,-7.968 6.594,-7.968 3.645,0 6.582,3.554 6.582,7.968 0,4.399 -2.937,7.953 -6.582,7.953 z m -125.547,1.083 c -0.097,-4.665 -1.972,-8.43 -4.094,-8.364 -2.167,0.035 -3.835,3.86 -3.71,8.508 0.07,4.68 1.945,8.422 4.066,8.375 2.195,-0.023 3.836,-3.879 3.738,-8.519 z m -13.828,-14.172 19.055,5.234 c 0,16.109 -9.082,27.59 -9.082,27.59 0,0 -9.973,-14.399 -9.973,-32.824 z m 373.484,-43.125 c -2.683,0 -4.851,-2.852 -4.851,-6.426 0,-3.543 2.168,-6.406 4.851,-6.406 2.715,0 4.836,2.863 4.836,6.406 0,3.574 -2.121,6.426 -4.836,6.426 z m -224.785,513.774 25.118,92.79 1.132,0.57 -12.832,-87.38 h -4.597 z m 39.414,6.07 H 411.16 l 9.477,87.29 z m -6.343,86.72 25.632,-92.04 -9.304,5.23 h -4.653 l -12.839,87.38 z m 15.632,-92.19 16.536,-9.04 -32.317,105.13 -8.554,0.1 -30.047,-105.98 16.582,9.79 z m -293.562,-357.363 3.609,2.012 3.86,69.801 36.55,-11.719 3.489,2.949 -41.543,14.352 -15.274,-5.582 7.879,-68.57 1.43,-3.243"
         style="fill:#ffffff;fill-opacity:1;fill-rule:nonzero;stroke:none"
         id="path30"
         inkscape:connector-curvature="0" /><path
         d="m 209.082,988.652 0.945,-0.324 v 0 l 29.543,-9.976 43.567,19.929 0.379,22.539 z m -18.445,-64.199 -36.582,11.715 -3.86,-69.797 -3.562,-1.98 0.078,-0.114 3.609,2.012 3.86,69.801 36.55,-11.719 3.489,2.949 -0.149,0.047 z M 31.4922,912.27 0,898.707 v -84.355 c 0,-47.872 33.5664,-79 82.0898,-94.528 9.1211,-3.652 23.3402,-7.258 38.3082,-10.722 v 10.761 c -59.8511,36.59 -79.2066,106.832 -9.597,138.754 l 9.883,3.903 v 0.699 l 0.578,-0.149 v 87.731 l 79.246,34.133 39.031,-13.547 v 0.004 L 200.344,985 31.4922,912.27"
         style="fill:#ffffff;fill-opacity:1;fill-rule:nonzero;stroke:none"
         id="path32"
         inkscape:connector-curvature="0" /><path
         d="m 1000.54,540.977 v -93.875 h -10.727 v 93.875 h 10.727"
         style="fill:#ffffff;fill-opacity:1;fill-rule:nonzero;stroke:none"
         id="path34"
         inkscape:connector-curvature="0" /><path
         d="m 1041.83,540.977 h 10.12 l 53.75,-75.801 v 75.801 h 9.57 v -93.875 h -10.09 l -53.76,74.976 v -74.976 h -9.59 v 93.875"
         style="fill:#ffffff;fill-opacity:1;fill-rule:nonzero;stroke:none"
         id="path36"
         inkscape:connector-curvature="0" /><path
         d="m 1187.96,542.793 c 3,0 6.39,-0.371 10.17,-1.113 3.83,-0.742 7.45,-2.305 10.91,-4.668 3.47,-2.344 6.52,-5.723 9.13,-10.086 2.63,-4.375 4.25,-10.149 4.97,-17.309 h -10.9 c -0.92,5.254 -2.3,9.387 -4.06,12.395 -1.75,3.015 -3.74,5.293 -5.98,6.828 -2.21,1.512 -4.62,2.508 -7.17,2.937 -2.53,0.45 -5.01,0.645 -7.45,0.645 -2.89,0 -5.62,-0.383 -8.1,-1.152 -2.5,-0.782 -4.69,-1.875 -6.58,-3.223 -1.89,-1.367 -3.39,-2.949 -4.47,-4.785 -1.09,-1.836 -1.62,-3.809 -1.62,-5.899 0,-2.871 0.82,-5.215 2.48,-6.953 1.64,-1.738 3.84,-3.242 6.55,-4.465 2.72,-1.218 5.81,-2.222 9.28,-3.015 3.44,-0.762 6.97,-1.629 10.57,-2.539 3.58,-0.926 7.12,-2.024 10.59,-3.282 3.44,-1.281 6.53,-2.921 9.25,-4.929 2.7,-1.985 4.91,-4.543 6.57,-7.649 1.67,-3.125 2.47,-6.933 2.47,-11.472 0,-4.211 -0.88,-8 -2.66,-11.418 -1.78,-3.399 -4.35,-6.309 -7.66,-8.711 -3.35,-2.403 -7.35,-4.258 -12.01,-5.586 -4.66,-1.309 -9.94,-1.953 -15.78,-1.953 -6.13,0 -11.36,0.957 -15.73,2.89 -4.4,1.922 -7.99,4.473 -10.86,7.715 -2.81,3.242 -4.91,7.031 -6.17,11.34 -1.35,4.344 -2.02,8.894 -2.02,13.719 h 10.53 c 0,-4.375 0.58,-8.145 1.8,-11.27 1.26,-3.164 2.91,-5.781 5.06,-7.883 2.17,-2.097 4.71,-3.648 7.62,-4.636 2.97,-0.996 6.17,-1.524 9.69,-1.524 3.92,0 7.57,0.305 10.84,0.918 3.26,0.606 6.14,1.594 8.47,2.949 2.37,1.348 4.2,3.106 5.52,5.254 1.33,2.129 1.96,4.739 1.96,7.793 0,4.453 -1.38,7.879 -4.21,10.282 -2.76,2.414 -6.31,4.308 -10.54,5.695 -4.26,1.406 -8.86,2.637 -13.82,3.703 -4.94,1.043 -9.53,2.449 -13.77,4.246 -4.24,1.785 -7.8,4.277 -10.6,7.481 -2.8,3.183 -4.19,7.617 -4.19,13.3 0,4.375 0.91,8.145 2.8,11.336 1.89,3.188 4.37,5.832 7.39,7.942 3.01,2.089 6.41,3.632 10.26,4.648 3.76,0.996 7.62,1.504 11.47,1.504"
         style="fill:#ffffff;fill-opacity:1;fill-rule:nonzero;stroke:none"
         id="path38"
         inkscape:connector-curvature="0" /><path
         d="m 1326.73,540.977 v -10.379 h -31.09 v -83.496 h -10.48 v 83.496 h -30.94 v 10.379 h 72.51"
         style="fill:#ffffff;fill-opacity:1;fill-rule:nonzero;stroke:none"
         id="path40"
         inkscape:connector-curvature="0" /><path
         d="m 1372.61,540.977 v -93.875 h -10.73 v 93.875 h 10.73"
         style="fill:#ffffff;fill-opacity:1;fill-rule:nonzero;stroke:none"
         id="path42"
         inkscape:connector-curvature="0" /><path
         d="m 1480.01,540.977 v -10.379 h -31.12 v -83.496 h -10.46 v 83.496 h -30.96 v 10.379 h 72.54"
         style="fill:#ffffff;fill-opacity:1;fill-rule:nonzero;stroke:none"
         id="path44"
         inkscape:connector-curvature="0" /><path
         d="M 1522.71,540.977 V 475.82 c 0,-3.332 0.75,-6.23 2.16,-8.73 1.46,-2.488 3.4,-4.602 5.81,-6.289 2.42,-1.719 5.21,-2.969 8.38,-3.809 3.16,-0.84 6.49,-1.25 10,-1.25 3.51,0 6.88,0.469 10.08,1.387 3.2,0.918 6.03,2.226 8.45,3.918 2.37,1.707 4.31,3.816 5.81,6.289 1.42,2.488 2.12,5.32 2.12,8.484 v 65.157 h 10.52 v -67.403 c 0,-4.726 -1.12,-8.867 -3.33,-12.375 -2.25,-3.562 -5.12,-6.472 -8.69,-8.789 -3.53,-2.312 -7.49,-4.07 -11.9,-5.262 -4.42,-1.171 -8.79,-1.757 -13.06,-1.757 -4.26,0 -8.62,0.586 -12.98,1.757 -4.34,1.192 -8.31,2.95 -11.85,5.262 -3.57,2.317 -6.41,5.227 -8.65,8.789 -2.25,3.508 -3.35,7.649 -3.35,12.375 v 67.403 h 10.48"
         style="fill:#ffffff;fill-opacity:1;fill-rule:nonzero;stroke:none"
         id="path46"
         inkscape:connector-curvature="0" /><path
         d="m 1691.45,540.977 v -10.379 h -31.07 v -83.496 h -10.5 v 83.496 h -30.94 v 10.379 h 72.51"
         style="fill:#ffffff;fill-opacity:1;fill-rule:nonzero;stroke:none"
         id="path48"
         inkscape:connector-curvature="0" /><path
         d="m 1793.05,540.977 v -10.379 h -58.36 v -28.325 h 55.08 V 491.66 h -55.08 v -34.219 h 58.48 v -10.339 h -68.96 v 93.875 h 68.84"
         style="fill:#ffffff;fill-opacity:1;fill-rule:nonzero;stroke:none"
         id="path50"
         inkscape:connector-curvature="0" /><path
         d="m 2135.45,540.977 v -10.379 h -31.07 v -83.496 h -10.46 v 83.496 H 2063 v 10.379 h 72.45"
         style="fill:#ffffff;fill-opacity:1;fill-rule:nonzero;stroke:none"
         id="path52"
         inkscape:connector-curvature="0" /><path
         d="m 2237.1,540.977 v -10.379 h -58.38 v -28.293 h 55.09 V 491.66 h -55.09 v -34.219 h 58.48 v -10.339 h -68.94 v 93.875 h 68.84"
         style="fill:#ffffff;fill-opacity:1;fill-rule:nonzero;stroke:none"
         id="path54"
         inkscape:connector-curvature="0" /><path
         d="m 2314.42,542.813 c 5.4,0 10.38,-0.606 14.96,-1.778 4.52,-1.191 8.54,-3.074 11.96,-5.691 3.46,-2.641 6.36,-6.067 8.64,-10.305 2.25,-4.238 3.88,-9.355 4.82,-15.422 h -10.62 c -0.69,4.309 -2.07,7.903 -4,10.821 -1.96,2.941 -4.36,5.304 -7.13,7.101 -2.82,1.777 -5.81,3.047 -9.06,3.789 -3.24,0.75 -6.44,1.133 -9.57,1.133 -4.04,0 -8,-0.703 -11.97,-2.051 -4,-1.367 -7.57,-3.555 -10.68,-6.543 -3.2,-3.027 -5.73,-6.972 -7.71,-11.816 -1.97,-4.844 -2.94,-10.801 -2.94,-17.891 0,-7.07 0.97,-13.055 2.94,-17.949 1.98,-4.902 4.51,-8.848 7.71,-11.856 3.11,-3.046 6.68,-5.214 10.68,-6.574 3.97,-1.355 7.93,-2.019 11.97,-2.019 3.4,0 6.77,0.468 10.1,1.426 3.34,0.964 6.36,2.48 9.16,4.531 2.83,2.07 5.18,4.668 7.17,7.871 1.97,3.183 3.28,7.012 3.98,11.465 h 10.48 c -0.79,-6.133 -2.45,-11.426 -5.03,-15.938 -2.58,-4.504 -5.74,-8.203 -9.43,-11.14 -3.75,-2.922 -7.89,-5.09 -12.48,-6.497 -4.6,-1.367 -9.25,-2.089 -13.95,-2.089 -6.79,0 -12.96,1.035 -18.42,3.086 -5.45,2.05 -10.1,5.117 -13.96,9.16 -3.84,4.082 -6.82,9.14 -8.84,15.234 -2.06,6.067 -3.09,13.164 -3.09,21.289 0,8.145 1.06,15.235 3.14,21.289 2.12,6.114 5.13,11.172 9.01,15.235 3.87,4.043 8.5,7.089 13.94,9.101 5.43,2.031 11.48,3.028 18.22,3.028"
         style="fill:#ffffff;fill-opacity:1;fill-rule:nonzero;stroke:none"
         id="path56"
         inkscape:connector-curvature="0" /><path
         d="m 2403.3,540.977 v -39.872 h 51.93 v 39.872 h 10.46 v -93.875 h -10.46 v 43.386 h -51.93 v -43.386 h -10.73 v 93.875 h 10.73"
         style="fill:#ffffff;fill-opacity:1;fill-rule:nonzero;stroke:none"
         id="path58"
         inkscape:connector-curvature="0" /><path
         d="m 2505.18,540.977 h 10.07 l 53.77,-75.782 v 75.782 h 9.55 v -93.875 h -10.09 l -53.76,74.976 v -74.976 h -9.54 v 93.875"
         style="fill:#ffffff;fill-opacity:1;fill-rule:nonzero;stroke:none"
         id="path60"
         inkscape:connector-curvature="0" /><path
         d="m 2659.33,532.461 c -4.02,0 -8.04,-0.703 -12.04,-2.051 -4.03,-1.367 -7.62,-3.555 -10.83,-6.543 -3.18,-3.027 -5.8,-6.972 -7.82,-11.816 -2,-4.844 -3.03,-10.801 -3.03,-17.891 0,-7.07 1.03,-13.055 3.03,-17.949 2.02,-4.902 4.64,-8.848 7.82,-11.856 3.21,-3.046 6.8,-5.214 10.83,-6.574 4,-1.355 8.02,-2.019 12.04,-2.019 4.13,0 8.14,0.664 12.07,2.019 3.95,1.36 7.43,3.574 10.5,6.614 3.02,3.085 5.48,7.031 7.43,11.945 1.81,4.89 2.75,10.84 2.75,17.82 0,7.09 -0.94,13.047 -2.84,17.891 -1.94,4.844 -4.42,8.789 -7.49,11.816 -3.05,2.988 -6.54,5.176 -10.49,6.543 -3.93,1.348 -7.88,2.051 -11.93,2.051 z m 0,10.352 c 6.53,0 12.52,-0.997 17.89,-2.969 5.39,-1.973 9.95,-4.973 13.77,-8.985 3.8,-4.004 6.75,-9.074 8.87,-15.175 2.07,-6.133 3.13,-13.301 3.13,-21.524 0,-8.215 -1.04,-15.351 -3.08,-21.445 -2.07,-6.055 -4.99,-11.113 -8.7,-15.188 -3.81,-4.082 -8.37,-7.117 -13.79,-9.109 -5.41,-2.02 -11.46,-3.027 -18.09,-3.027 -6.82,0 -12.98,1.035 -18.48,3.086 -5.51,2.05 -10.2,5.117 -14.11,9.16 -3.88,4.082 -6.87,9.14 -8.97,15.234 -2.08,6.067 -3.11,13.164 -3.11,21.289 0,8.145 1.04,15.235 3.2,21.289 2.13,6.114 5.17,11.172 9.11,15.235 3.91,4.043 8.61,7.089 14.06,9.101 5.44,2.031 11.61,3.028 18.3,3.028"
         style="fill:#ffffff;fill-opacity:1;fill-rule:nonzero;stroke:none"
         id="path62"
         inkscape:connector-curvature="0" /><path
         d="m 2748.99,540.977 v -83.536 h 47.61 v -10.339 h -58.34 v 93.875 h 10.73"
         style="fill:#ffffff;fill-opacity:1;fill-rule:nonzero;stroke:none"
         id="path64"
         inkscape:connector-curvature="0" /><path
         d="m 2870.91,532.461 c -3.99,0 -8.01,-0.703 -12.03,-2.051 -4.05,-1.367 -7.64,-3.555 -10.84,-6.543 -3.21,-3.027 -5.76,-6.972 -7.81,-11.816 -1.98,-4.844 -3.01,-10.801 -3.01,-17.891 0,-7.07 1.03,-13.055 3.01,-17.949 2.05,-4.902 4.6,-8.848 7.81,-11.856 3.2,-3.046 6.79,-5.214 10.84,-6.574 4.02,-1.355 8.04,-2.019 12.03,-2.019 4.12,0 8.16,0.664 12.09,2.019 3.9,1.36 7.44,3.574 10.46,6.614 3.08,3.085 5.53,7.031 7.45,11.945 1.85,4.89 2.77,10.84 2.77,17.82 0,7.09 -0.92,13.047 -2.85,17.891 -1.92,4.844 -4.41,8.789 -7.47,11.816 -3.08,2.988 -6.57,5.176 -10.51,6.543 -3.94,1.348 -7.92,2.051 -11.94,2.051 z m 0,10.352 c 6.55,0 12.55,-0.997 17.93,-2.969 5.37,-1.973 9.92,-4.973 13.75,-8.985 3.83,-4.004 6.77,-9.074 8.85,-15.175 2.07,-6.133 3.15,-13.301 3.15,-21.524 0,-8.215 -1.04,-15.351 -3.07,-21.445 -2.07,-6.055 -4.99,-11.113 -8.76,-15.188 -3.74,-4.082 -8.36,-7.117 -13.74,-9.109 -5.44,-2.02 -11.44,-3.027 -18.11,-3.027 -6.8,0 -12.97,1.035 -18.46,3.086 -5.52,2.05 -10.23,5.117 -14.1,9.16 -3.88,4.082 -6.87,9.14 -8.97,15.234 -2.11,6.067 -3.15,13.164 -3.15,21.289 0,8.145 1.08,15.235 3.2,21.289 2.15,6.114 5.17,11.172 9.1,15.235 3.96,4.043 8.65,7.089 14.11,9.101 5.45,2.031 11.57,3.028 18.27,3.028"
         style="fill:#ffffff;fill-opacity:1;fill-rule:nonzero;stroke:none"
         id="path66"
         inkscape:connector-curvature="0" /><path
         d="m 2947.62,494.16 c 0,8.145 1.06,15.235 3.15,21.289 2.06,6.114 5.06,11.172 9,15.235 3.87,4.043 8.53,7.089 13.94,9.101 5.43,2.031 11.48,3.028 18.22,3.028 5.39,0 10.38,-0.606 14.96,-1.778 4.53,-1.191 8.49,-3.074 12.01,-5.691 3.41,-2.641 6.31,-6.067 8.52,-10.305 2.3,-4.238 3.94,-9.355 4.89,-15.422 h -10.64 c -0.66,4.309 -2,7.903 -3.98,10.821 -1.96,2.941 -4.38,5.304 -7.13,7.101 -2.82,1.777 -5.85,3.047 -9.05,3.789 -3.25,0.75 -6.4,1.133 -9.58,1.133 -4.03,0 -8,-0.703 -12.02,-2.051 -3.95,-1.367 -7.52,-3.555 -10.67,-6.543 -3.16,-3.027 -5.71,-6.972 -7.67,-11.816 -1.97,-4.844 -2.96,-10.801 -2.96,-17.891 0,-7.07 1.22,-13.047 3.64,-17.89 2.39,-4.844 5.45,-8.79 9.16,-11.875 3.73,-3.04 7.8,-5.254 12.23,-6.614 4.41,-1.355 8.61,-2.019 12.63,-2.019 1.32,0 3.11,0.058 5.37,0.195 2.25,0.129 4.7,0.313 7.3,0.508 2.55,0.234 5.03,0.508 7.47,0.859 2.36,0.364 4.33,0.742 5.81,1.172 v 26.887 h -21.63 v 10.34 h 32.11 v -45.606 c -2.55,-0.859 -5.56,-1.601 -8.97,-2.226 -3.45,-0.606 -6.9,-1.082 -10.36,-1.446 -3.46,-0.332 -6.74,-0.605 -9.76,-0.781 -3.05,-0.176 -5.53,-0.273 -7.34,-0.273 -6.75,0 -13.07,1.007 -18.94,3.027 -5.92,1.992 -11.06,5.027 -15.43,9.109 -4.37,4.075 -7.85,9.153 -10.41,15.254 -2.61,6.125 -3.87,13.254 -3.87,21.379"
         style="fill:#ffffff;fill-opacity:1;fill-rule:nonzero;stroke:none"
         id="path68"
         inkscape:connector-curvature="0" /><path
         d="m 3103.03,494.824 27.85,46.153 h 12.87 l -35.37,-56.25 v -37.625 h -10.51 v 37.625 l -35.67,56.25 h 13.1 l 27.73,-46.153"
         style="fill:#ffffff;fill-opacity:1;fill-rule:nonzero;stroke:none"
         id="path70"
         inkscape:connector-curvature="0" /><path
         d="m 987.598,378.391 v 13.738 H 3142.8 V 378.391 H 987.598 v 0"
         style="fill:#ffffff;fill-opacity:1;fill-rule:nonzero;stroke:none"
         id="path72"
         inkscape:connector-curvature="0" /><path
         d="m 1910.61,521.133 c -15.89,0 -25.13,-17.735 -25.13,-40.762 0,-11.074 4.95,-15.613 13.87,-15.613 16.38,0 25.08,19.363 25.08,41.031 0,11.203 -6.47,15.344 -13.82,15.344 m -13.37,-65.586 c -15.37,0 -23.98,9.492 -23.98,25.547 0,28.086 16.89,49.121 39.34,49.121 16.45,0 24,-10.352 24,-25.703 0,-27.403 -16.26,-48.965 -39.36,-48.965"
         style="fill:#ffffff;fill-opacity:1;fill-rule:nonzero;stroke:none"
         id="path74"
         inkscape:connector-curvature="0" /><path
         d="m 1998.88,548.273 c -3.15,2.118 -6.7,3.231 -10.55,3.231 -6.21,0 -10.46,-4.414 -12.17,-12.5 l -2.02,-10.899 h 19.61 l -4.98,-8.398 h -16.15 l -12.77,-64.297 c -2.57,-13.066 -5.58,-20.73 -10.93,-27.539 l -9.12,4.922 c 4.39,6.121 7.09,12.695 9.28,23.574 l 12.36,63.34 h -7.32 l 1.65,8.398 h 7.19 l 1.85,9.512 c 1.86,9.336 5.36,15.457 10.81,19.016 3.76,2.578 8.21,3.543 13.43,3.543 6.06,0 10.36,-1.153 13.88,-3.543 l -4.05,-8.36"
         style="fill:#ffffff;fill-opacity:1;fill-rule:nonzero;stroke:none"
         id="path76"
         inkscape:connector-curvature="0" /><path
         d="m 1277.3,881.133 -13.89,-6.938 -39.11,43.598 c -6.6,4.977 -12.88,9.59 -18.86,13.879 -5.93,4.301 -11.86,8.086 -17.85,11.402 -6.9,3.641 -14.1,6.594 -21.51,8.903 -7.39,2.332 -15.61,3.644 -24.55,3.98 -7.57,0.313 -15.19,-0.164 -22.79,-1.492 -7.59,-1.305 -14.7,-3.305 -21.27,-5.942 -6.94,-2.992 -13.07,-6.625 -18.39,-10.902 -5.27,-4.308 -9.41,-9.398 -12.35,-15.371 -3.3,-7.605 -4.95,-14.375 -4.95,-20.301 0,-5.937 0.99,-11.324 2.97,-16.109 1.98,-4.789 4.72,-8.922 8.16,-12.383 3.48,-3.457 7.04,-6.508 10.67,-9.156 7.89,-5.633 16.35,-10.156 25.29,-13.625 8.91,-3.481 17.97,-6.36 27.21,-8.66 10.59,-2.676 21.31,-5.063 32.22,-7.196 10.9,-2.164 21.62,-4.562 32.18,-7.199 9.6,-2.633 18.88,-5.375 27.75,-8.148 8.96,-2.817 17.18,-6.227 24.77,-10.192 7.62,-3.953 14.57,-8.597 20.84,-13.832 6.22,-5.336 11.74,-11.57 16.36,-18.851 4.26,-6.621 7.33,-13.969 9.15,-22.047 1.79,-8.098 2.73,-16.106 2.73,-24.031 0,-7.903 -0.94,-15.598 -2.73,-23.04 -1.82,-7.421 -3.88,-13.945 -6.2,-19.589 -4.32,-8.582 -9.33,-16.328 -15.09,-23.274 -5.79,-6.953 -12.17,-13.054 -19.07,-18.328 -7.93,-5.957 -16.21,-10.879 -24.81,-14.863 -8.57,-3.965 -17.03,-7.11 -25.27,-9.414 -7.59,-2.305 -15.01,-3.887 -22.27,-4.688 -7.26,-0.832 -14.38,-1.25 -21.32,-1.25 -6.92,0.332 -14.05,0.899 -21.3,1.739 -7.3,0.808 -14.7,1.699 -22.27,2.722 -5.95,0.988 -12.11,2.629 -18.35,4.953 -6.29,2.305 -12.54,4.934 -18.82,7.91 -4.63,2.332 -9.28,4.786 -13.89,7.43 -4.63,2.629 -9.08,5.129 -13.39,7.453 l -6.92,-23.789 h -21.3 l -32.225,116.934 18.335,2.949 c 4.62,-8.223 9.59,-16.27 14.88,-24.023 5.26,-7.754 10.72,-15.274 16.34,-22.539 5.95,-7.266 12.31,-14.129 19.08,-20.567 6.78,-6.426 14.29,-12.305 22.56,-17.578 8.24,-5.273 16.62,-9.395 25.04,-12.395 8.39,-2.964 16.73,-4.949 25.01,-5.945 8.26,-0.996 16.23,-1.308 24.02,-0.996 7.75,0.352 15.24,1.184 22.57,2.481 8.17,1.308 15.79,3.808 22.76,7.46 6.94,3.606 13.04,7.735 18.34,12.364 5.6,4.98 10.29,10.312 14.1,16.113 3.78,5.773 6.51,11.648 8.17,17.566 2.29,8.274 3.49,15.891 3.49,22.817 0,6.922 -1.06,13.125 -3.26,18.582 -2.12,5.449 -5.19,10.312 -9.15,14.57 -3.94,4.324 -8.44,7.797 -13.35,10.434 -8.95,4.289 -17.97,7.929 -27.03,10.902 -9.06,2.977 -18.21,5.613 -27.47,7.918 -9.58,2.34 -19.08,4.383 -28.5,6.215 -9.4,1.816 -18.75,3.851 -28,6.184 -9.9,2.308 -19.75,5.285 -29.45,8.933 -9.77,3.629 -18.79,7.582 -27.07,11.895 -8.2,4.613 -15.59,9.566 -22,14.847 -6.44,5.27 -11.13,10.715 -14.1,16.356 -4,6.922 -6.7,14.187 -8.2,21.804 -1.49,7.586 -2.25,14.985 -2.25,22.262 0.34,9.938 2.16,19.367 5.46,28.27 3.28,8.898 7.77,16.832 13.41,23.75 6.59,7.972 14.02,14.468 22.3,19.601 8.26,5.117 16.96,8.989 26.19,11.625 10.6,3.285 21.53,5.203 32.77,5.699 11.21,0.516 22.43,0.434 33.64,-0.23 7.27,-0.648 14.24,-1.746 20.82,-3.219 6.62,-1.504 12.99,-3.324 19.1,-5.453 6.05,-2.156 12.22,-4.531 18.34,-7.195 6.06,-2.633 12.43,-5.457 19.03,-8.418 l 5.45,16.84 h 18.35 l 30.72,-90.172"
         style="fill:#ffffff;fill-opacity:1;fill-rule:nonzero;stroke:none"
         id="path78"
         inkscape:connector-curvature="0" /><path
         d="m 1584.92,919.348 23.62,-75.934 -15.19,-4.652 c -3.08,5.336 -6.54,10.746 -10.33,16.218 -3.78,5.512 -7.96,10.649 -12.43,15.43 -4.51,4.77 -9.46,9.133 -14.78,13.07 -5.35,3.918 -10.99,7.301 -16.89,10.133 -5.64,2.52 -11.51,4.555 -17.71,6.129 -6.19,1.531 -12.79,2.438 -19.83,2.723 -3.37,0 -6.31,-0.215 -8.84,-0.625 -2.55,-0.434 -4.63,-1.266 -6.34,-2.543 -1.68,-1.266 -2.98,-2.949 -3.8,-5.067 -0.85,-2.097 -1.26,-4.843 -1.26,-8.21 V 650.137 l 46.78,-12.188 v -13.515 h -133.28 v 13.046 l 43.46,11.817 v 235.875 c 0,3.105 -0.42,5.766 -1.28,7.996 -0.82,2.254 -1.96,4.051 -3.38,5.289 -1.4,1.285 -3.02,2.25 -4.8,2.949 -1.87,0.707 -3.76,1.059 -5.75,1.059 -6.17,0 -12.22,-0.492 -18.12,-1.485 -5.93,-0.968 -11.68,-2.472 -17.31,-4.417 -7.88,-3.106 -15.34,-7.032 -22.35,-11.817 -7.06,-4.781 -13.37,-10.121 -19.01,-16.023 -4.22,-4.782 -8.02,-9.774 -11.4,-14.989 -3.37,-5.199 -6.03,-10.609 -8,-16.238 l -16.02,5.047 24.89,76.805 h 249.35"
         style="fill:#ffffff;fill-opacity:1;fill-rule:nonzero;stroke:none"
         id="path80"
         inkscape:connector-curvature="0" /><path
         d="m 1877.69,918.945 28.22,-78.496 -13.09,-3.808 c -4.2,5.625 -8.83,10.964 -13.88,16.019 -5.08,5.09 -10.42,9.844 -16.09,14.367 -5.63,4.211 -11.54,8.153 -17.69,11.825 -6.19,3.628 -12.5,6.855 -18.99,9.687 -7.61,3.387 -15.54,6.133 -23.83,8.231 -8.29,2.097 -16.71,3.46 -25.1,4.003 -6.77,0.567 -13.44,0.692 -20.02,0.434 -6.65,-0.269 -13.19,-0.977 -19.64,-2.113 -3.68,-0.84 -7.01,-2.254 -10.17,-4.215 -3.03,-1.981 -5.56,-4.367 -7.56,-7.184 -1.96,-2.523 -3.54,-5.41 -4.61,-8.632 -1.13,-3.243 -1.69,-6.559 -1.69,-9.918 v -77.211 h 70.85 l 13.1,54.418 h 16.04 V 717.246 h -14.78 l -14.77,54.414 h -70.44 v -93.672 c 0,-3.359 0.66,-6.797 2.06,-10.324 1.42,-3.516 3.13,-6.668 5.03,-9.5 2.3,-3.098 4.97,-5.684 8.07,-7.793 3.11,-2.129 6.34,-3.457 9.69,-4.043 6.77,-1.074 13.43,-1.933 20.05,-2.519 6.58,-0.536 13.28,-0.723 20.04,-0.391 8.46,0.547 16.85,1.836 25.31,3.789 8.48,1.973 16.74,4.766 24.9,8.445 7.6,3.371 15.24,7.707 23.02,13.059 7.72,5.352 15.37,11.543 22.98,18.574 5.35,5.078 10.62,10.567 15.81,16.465 5.23,5.891 10.36,12.234 15.4,18.965 l 14.33,-5.469 -38.79,-92.812 h -248.94 v 13.086 l 36.7,9.687 v 248.102 l -38.39,10.543 v 13.093 h 246.87"
         style="fill:#ffffff;fill-opacity:1;fill-rule:nonzero;stroke:none"
         id="path82"
         inkscape:connector-curvature="0" /><path
         d="m 2045.89,920.602 v -14.75 l -41.75,-11.399 84.38,-222.351 86.9,222.777 -46.38,12.234 v 12.235 h 113.92 v -11.399 l -38.84,-10.121 -111.8,-273.394 h -27.42 l -110.54,273.394 -35.05,9.285 v 13.489 h 126.58"
         style="fill:#ffffff;fill-opacity:1;fill-rule:nonzero;stroke:none"
         id="path84"
         inkscape:connector-curvature="0" /><path
         d="m 2513.73,918.945 28.29,-78.496 -13.06,-3.808 c -4.22,5.625 -8.91,10.964 -13.93,16.019 -5.13,5.09 -10.45,9.844 -16.05,14.367 -5.65,4.211 -11.51,8.153 -17.7,11.825 -6.24,3.628 -12.58,6.855 -19.01,9.687 -7.61,3.387 -15.57,6.133 -23.85,8.231 -8.31,2.097 -16.65,3.46 -25.12,4.003 -6.72,0.567 -13.44,0.692 -20.02,0.434 -6.62,-0.269 -13.19,-0.977 -19.63,-2.113 -3.66,-0.84 -7.02,-2.254 -10.11,-4.215 -3.1,-1.981 -5.63,-4.367 -7.57,-7.184 -2.01,-2.523 -3.56,-5.41 -4.68,-8.632 -1.11,-3.243 -1.67,-6.559 -1.67,-9.918 v -77.211 h 70.89 l 13.06,54.418 h 16.03 V 717.246 h -14.76 l -14.78,54.414 h -70.44 v -93.672 c 0,-3.359 0.72,-6.797 2.13,-10.324 1.35,-3.516 3.05,-6.668 5.08,-9.5 2.18,-3.098 4.91,-5.684 7.95,-7.793 3.14,-2.129 6.34,-3.457 9.68,-4.043 6.78,-1.074 13.5,-1.933 20.1,-2.519 6.6,-0.536 13.25,-0.723 20.04,-0.391 8.44,0.547 16.86,1.836 25.31,3.789 8.4,1.973 16.74,4.766 24.88,8.445 7.57,3.371 15.28,7.707 22.99,13.059 7.74,5.352 15.4,11.543 22.98,18.574 5.35,5.078 10.62,10.567 15.84,16.465 5.2,5.891 10.38,12.234 15.42,18.965 l 14.34,-5.469 -38.84,-92.812 h -248.96 v 13.086 l 36.76,9.687 v 248.102 l -38.42,10.543 v 13.093 h 246.83"
         style="fill:#ffffff;fill-opacity:1;fill-rule:nonzero;stroke:none"
         id="path86"
         inkscape:connector-curvature="0" /><path
         d="m 2671.03,918.945 143.44,-233.769 v 209.277 l -42.59,11.399 v 12.214 h 105.02 v -13.07 l -37.93,-10.543 V 623.145 h -38.83 L 2639.37,884.746 V 648.477 l 43.02,-11.836 v -12.618 h -105.44 v 12.618 l 38.39,10.117 v 247.695 l -38.39,10.543 v 13.949 h 94.08"
         style="fill:#ffffff;fill-opacity:1;fill-rule:nonzero;stroke:none"
         id="path88"
         inkscape:connector-curvature="0" /><path
         d="m 3114.69,837.832 -11.22,-5.609 -31.68,35.281 c -5.35,4.027 -10.46,7.75 -15.31,11.25 -4.74,3.476 -9.6,6.543 -14.38,9.211 -5.6,2.949 -11.46,5.355 -17.44,7.226 -6.01,1.887 -12.66,2.93 -19.84,3.204 -6.2,0.261 -12.29,-0.133 -18.5,-1.204 -6.12,-1.082 -11.89,-2.675 -17.23,-4.808 -5.63,-2.418 -10.54,-5.328 -14.86,-8.832 -4.27,-3.492 -7.62,-7.621 -10,-12.43 -2.71,-6.164 -4.02,-11.652 -4.02,-16.457 0,-4.805 0.82,-9.168 2.36,-13.039 1.66,-3.875 3.87,-7.215 6.67,-10.02 2.82,-2.804 5.66,-5.289 8.59,-7.421 6.44,-4.555 13.25,-8.227 20.52,-11.043 7.2,-2.789 14.54,-5.137 22.03,-7.012 8.58,-2.16 17.26,-4.082 26.08,-5.785 8.82,-1.785 17.5,-3.711 26.05,-5.84 7.78,-2.145 15.24,-4.363 22.48,-6.629 7.25,-2.289 13.92,-5.016 20.06,-8.219 6.12,-3.215 11.76,-6.961 16.84,-11.222 5.09,-4.301 9.53,-9.387 13.24,-15.25 3.48,-5.352 5.96,-11.309 7.4,-17.852 1.5,-6.57 2.23,-13.047 2.23,-19.453 0,-6.445 -0.73,-12.649 -2.23,-18.672 -1.44,-5.996 -3.1,-11.289 -4.95,-15.84 -3.51,-6.965 -7.61,-13.242 -12.26,-18.855 -4.74,-5.617 -9.83,-10.578 -15.47,-14.817 -6.41,-4.851 -13.08,-8.847 -20.05,-12.05 -6.96,-3.211 -13.77,-5.743 -20.43,-7.618 -6.19,-1.882 -12.21,-3.164 -18.07,-3.808 -5.92,-0.664 -11.63,-0.996 -17.26,-0.996 -5.6,0.254 -11.33,0.715 -17.26,1.386 -5.83,0.684 -11.86,1.438 -18.03,2.207 -4.82,0.782 -9.78,2.149 -14.86,4.004 -5.09,1.875 -10.15,3.993 -15.24,6.426 -3.75,1.875 -7.47,3.859 -11.22,6.027 -3.76,2.11 -7.34,4.129 -10.82,6.004 l -5.63,-19.257 h -17.29 l -26.04,94.668 14.86,2.402 c 3.74,-6.692 7.73,-13.176 12.01,-19.434 4.26,-6.308 8.67,-12.375 13.25,-18.254 4.79,-5.886 9.97,-11.441 15.46,-16.648 5.45,-5.215 11.55,-9.981 18.26,-14.258 6.66,-4.258 13.41,-7.617 20.27,-10.019 6.78,-2.422 13.56,-4.004 20.22,-4.786 6.69,-0.847 13.18,-1.086 19.44,-0.847 6.29,0.281 12.37,0.965 18.29,2 6.68,1.094 12.8,3.105 18.46,6.035 5.56,2.961 10.52,6.289 14.84,10.012 4.51,4.05 8.31,8.379 11.41,13.054 3.05,4.688 5.27,9.446 6.65,14.246 1.84,6.711 2.76,12.844 2.76,18.43 0,5.645 -0.87,10.652 -2.58,15.059 -1.76,4.414 -4.19,8.359 -7.44,11.836 -3.18,3.449 -6.78,6.289 -10.8,8.418 -7.25,3.476 -14.55,6.433 -21.85,8.839 -7.4,2.411 -14.82,4.54 -22.29,6.407 -7.77,1.867 -15.47,3.562 -23.09,5.023 -7.56,1.445 -15.17,3.145 -22.62,5 -8.05,1.875 -15.99,4.277 -23.88,7.235 -7.94,2.945 -15.2,6.148 -21.9,9.64 -6.68,3.738 -12.6,7.746 -17.85,12.027 -5.18,4.278 -9.01,8.676 -11.42,13.227 -3.21,5.633 -5.42,11.484 -6.64,17.645 -1.22,6.164 -1.77,12.183 -1.77,18.062 0.24,8.024 1.69,15.641 4.4,22.852 2.69,7.226 6.29,13.672 10.83,19.261 5.36,6.422 11.37,11.711 18.04,15.86 6.7,4.14 13.74,7.277 21.26,9.433 8.55,2.649 17.39,4.2 26.49,4.621 9.09,0.368 18.22,0.329 27.28,-0.226 5.86,-0.531 11.49,-1.395 16.84,-2.617 5.36,-1.192 10.5,-2.668 15.45,-4.383 4.92,-1.758 9.91,-3.684 14.87,-5.832 4.91,-2.153 10.06,-4.422 15.42,-6.817 l 4.41,13.637 h 14.86 l 24.84,-72.996"
         style="fill:#ffffff;fill-opacity:1;fill-rule:nonzero;stroke:none"
         id="path90"
         inkscape:connector-curvature="0" /><path
         d="m 1055.29,321.52 v -9.918 h -29.73 V 231.66 h -10.05 v 79.942 h -29.612 v 9.918 h 69.392"
         style="fill:#ffffff;fill-opacity:1;fill-rule:nonzero;stroke:none"
         id="path92"
         inkscape:connector-curvature="0" /><path
         d="m 1090.57,321.52 v -38.161 h 49.69 v 38.161 h 10.04 v -89.86 h -10.04 v 41.539 h -49.69 V 231.66 h -10.3 v 89.86 h 10.3"
         style="fill:#ffffff;fill-opacity:1;fill-rule:nonzero;stroke:none"
         id="path94"
         inkscape:connector-curvature="0" /><path
         d="m 1247.94,321.52 v -9.918 h -55.85 v -27.114 h 52.7 V 274.34 h -52.7 v -32.77 h 55.98 v -9.91 h -66.02 v 89.86 h 65.89"
         style="fill:#ffffff;fill-opacity:1;fill-rule:nonzero;stroke:none"
         id="path96"
         inkscape:connector-curvature="0" /><path
         d="m 1335.54,321.52 v -89.86 h -10.3 v 89.86 h 10.3"
         style="fill:#ffffff;fill-opacity:1;fill-rule:nonzero;stroke:none"
         id="path98"
         inkscape:connector-curvature="0" /><path
         d="m 1368.67,321.52 h 9.67 l 51.45,-72.54 v 72.54 h 9.17 v -89.86 h -9.67 l -51.46,71.789 V 231.66 h -9.16 v 89.86"
         style="fill:#ffffff;fill-opacity:1;fill-rule:nonzero;stroke:none"
         id="path100"
         inkscape:connector-curvature="0" /><path
         d="m 1470.44,321.52 h 9.67 l 51.46,-72.54 v 72.54 h 9.16 v -89.86 h -9.67 l -51.46,71.789 V 231.66 h -9.16 v 89.86"
         style="fill:#ffffff;fill-opacity:1;fill-rule:nonzero;stroke:none"
         id="path102"
         inkscape:connector-curvature="0" /><path
         d="m 1611.63,313.359 c -3.87,0 -7.71,-0.648 -11.56,-1.937 -3.85,-1.301 -7.29,-3.391 -10.35,-6.281 -3.05,-2.879 -5.55,-6.641 -7.46,-11.289 -1.94,-4.653 -2.89,-10.352 -2.89,-17.133 0,-6.778 0.95,-12.52 2.89,-17.199 1.91,-4.692 4.41,-8.469 7.46,-11.36 3.06,-2.89 6.5,-4.98 10.35,-6.269 3.85,-1.301 7.69,-1.95 11.56,-1.95 3.93,0 7.77,0.649 11.54,1.95 3.75,1.289 7.11,3.398 10.04,6.328 2.93,2.929 5.3,6.742 7.09,11.429 1.8,4.692 2.7,10.372 2.7,17.071 0,6.781 -0.92,12.48 -2.76,17.133 -1.85,4.648 -4.23,8.41 -7.16,11.289 -2.93,2.89 -6.27,4.98 -10.04,6.281 -3.77,1.289 -7.58,1.937 -11.41,1.937 z m 0,9.922 c 6.27,0 11.97,-0.953 17.13,-2.832 5.14,-1.879 9.53,-4.75 13.16,-8.59 3.66,-3.847 6.47,-8.711 8.48,-14.57 2.01,-5.84 3.01,-12.711 3.01,-20.57 0,-7.867 -0.98,-14.707 -2.95,-20.528 -1.95,-5.812 -4.75,-10.66 -8.34,-14.55 -3.59,-3.891 -7.99,-6.801 -13.18,-8.731 -5.18,-1.91 -10.96,-2.879 -17.31,-2.879 -6.54,0 -12.44,0.989 -17.69,2.949 -5.28,1.961 -9.79,4.891 -13.5,8.782 -3.73,3.886 -6.6,8.75 -8.59,14.566 -2.02,5.801 -3.03,12.613 -3.03,20.391 0,7.769 1.03,14.57 3.08,20.39 2.06,5.821 4.97,10.661 8.72,14.551 3.76,3.899 8.26,6.801 13.49,8.731 5.24,1.918 11.08,2.89 17.52,2.89"
         style="fill:#ffffff;fill-opacity:1;fill-rule:nonzero;stroke:none"
         id="path104"
         inkscape:connector-curvature="0" /><path
         d="m 1710.63,241.57 h 4.4 l 25.72,79.95 h 11.31 l -30.76,-89.86 h -17.81 l -30.26,89.86 h 11.94 l 25.46,-79.95"
         style="fill:#ffffff;fill-opacity:1;fill-rule:nonzero;stroke:none"
         id="path106"
         inkscape:connector-curvature="0" /><path
         d="m 1779.05,264.039 h 37.27 l -17.07,47.563 h -4.4 z m 40.65,-10.418 h -44.05 l -7.03,-21.961 h -11.29 l 31.25,89.86 h 17.82 l 32.13,-89.86 h -11.8 l -7.03,21.961"
         style="fill:#ffffff;fill-opacity:1;fill-rule:nonzero;stroke:none"
         id="path108"
         inkscape:connector-curvature="0" /><path
         d="m 1915.46,321.52 v -9.918 h -29.73 V 231.66 h -10.06 v 79.942 h -29.61 v 9.918 h 69.4"
         style="fill:#ffffff;fill-opacity:1;fill-rule:nonzero;stroke:none"
         id="path110"
         inkscape:connector-curvature="0" /><path
         d="m 1952.98,321.52 v -89.86 h -10.29 v 89.86 h 10.29"
         style="fill:#ffffff;fill-opacity:1;fill-rule:nonzero;stroke:none"
         id="path112"
         inkscape:connector-curvature="0" /><path
         d="m 2025.54,313.359 c -3.87,0 -7.72,-0.648 -11.57,-1.937 -3.84,-1.301 -7.28,-3.391 -10.35,-6.281 -3.04,-2.879 -5.54,-6.641 -7.46,-11.289 -1.93,-4.653 -2.89,-10.352 -2.89,-17.133 0,-6.778 0.96,-12.52 2.89,-17.199 1.92,-4.692 4.42,-8.469 7.46,-11.36 3.07,-2.89 6.51,-4.98 10.35,-6.269 3.85,-1.301 7.7,-1.95 11.57,-1.95 3.92,0 7.77,0.649 11.54,1.95 3.75,1.289 7.11,3.398 10.04,6.328 2.93,2.929 5.29,6.742 7.09,11.429 1.8,4.692 2.69,10.372 2.69,17.071 0,6.781 -0.91,12.48 -2.75,17.133 -1.86,4.648 -4.24,8.41 -7.17,11.289 -2.93,2.89 -6.27,4.98 -10.04,6.281 -3.77,1.289 -7.57,1.937 -11.4,1.937 z m 0,9.922 c 6.27,0 11.97,-0.953 17.13,-2.832 5.13,-1.879 9.53,-4.75 13.16,-8.59 3.65,-3.847 6.46,-8.711 8.48,-14.57 2.01,-5.84 3,-12.711 3,-20.57 0,-7.867 -0.97,-14.707 -2.94,-20.528 -1.96,-5.812 -4.75,-10.66 -8.34,-14.55 -3.6,-3.891 -7.99,-6.801 -13.19,-8.731 -5.17,-1.91 -10.96,-2.879 -17.3,-2.879 -6.55,0 -12.44,0.989 -17.7,2.949 -5.27,1.961 -9.78,4.891 -13.49,8.782 -3.73,3.886 -6.61,8.75 -8.6,14.566 -2.01,5.801 -3.03,12.613 -3.03,20.391 0,7.769 1.04,14.57 3.09,20.39 2.05,5.821 4.96,10.661 8.71,14.551 3.77,3.899 8.26,6.801 13.5,8.731 5.23,1.918 11.07,2.89 17.52,2.89"
         style="fill:#ffffff;fill-opacity:1;fill-rule:nonzero;stroke:none"
         id="path114"
         inkscape:connector-curvature="0" /><path
         d="m 2094.93,321.52 h 9.67 l 51.44,-72.54 v 72.54 h 9.17 v -89.86 h -9.67 l -51.45,71.789 V 231.66 h -9.16 v 89.86"
         style="fill:#ffffff;fill-opacity:1;fill-rule:nonzero;stroke:none"
         id="path116"
         inkscape:connector-curvature="0" /><path
         d="m 2252.67,321.52 v -62.379 c 0,-3.18 0.7,-5.961 2.09,-8.34 1.38,-2.379 3.24,-4.391 5.54,-6.02 2.33,-1.64 4.98,-2.851 8.01,-3.652 3.03,-0.801 6.23,-1.188 9.59,-1.188 3.36,0 6.58,0.438 9.65,1.321 3.07,0.879 5.76,2.136 8.07,3.758 2.32,1.64 4.16,3.652 5.54,6.031 1.39,2.39 2.09,5.078 2.09,8.09 v 62.379 h 10.04 v -64.508 c 0,-4.512 -1.07,-8.473 -3.2,-11.852 -2.13,-3.398 -4.88,-6.199 -8.28,-8.422 -3.38,-2.207 -7.19,-3.886 -11.43,-5.019 -4.22,-1.117 -8.38,-1.688 -12.48,-1.688 -4.1,0 -8.24,0.571 -12.42,1.688 -4.18,1.133 -7.97,2.812 -11.37,5.019 -3.38,2.223 -6.13,5.024 -8.28,8.422 -2.13,3.379 -3.2,7.34 -3.2,11.852 v 64.508 h 10.04"
         style="fill:#ffffff;fill-opacity:1;fill-rule:nonzero;stroke:none"
         id="path118"
         inkscape:connector-curvature="0" /><path
         d="m 2344.54,321.52 h 9.67 l 51.44,-72.54 v 72.54 h 9.16 v -89.86 h -9.66 l -51.45,71.789 V 231.66 h -9.16 v 89.86"
         style="fill:#ffffff;fill-opacity:1;fill-rule:nonzero;stroke:none"
         id="path120"
         inkscape:connector-curvature="0" /><path
         d="m 2459.25,321.52 v -89.86 h -10.29 v 89.86 h 10.29"
         style="fill:#ffffff;fill-opacity:1;fill-rule:nonzero;stroke:none"
         id="path122"
         inkscape:connector-curvature="0" /><path
         d="m 2522,241.57 h 4.4 l 25.72,79.95 h 11.29 l -30.74,-89.86 h -17.82 l -30.25,89.86 h 11.91 L 2522,241.57"
         style="fill:#ffffff;fill-opacity:1;fill-rule:nonzero;stroke:none"
         id="path124"
         inkscape:connector-curvature="0" /><path
         d="m 2653.53,321.52 v -9.918 h -55.86 v -27.114 h 52.71 V 274.34 h -52.71 v -32.77 h 55.97 v -9.91 h -66.01 v 89.86 h 65.9"
         style="fill:#ffffff;fill-opacity:1;fill-rule:nonzero;stroke:none"
         id="path126"
         inkscape:connector-curvature="0" /><path
         d="m 2725.77,282.109 c 2.35,0 4.65,0.371 6.92,1.129 2.26,0.75 4.23,1.821 5.91,3.211 1.68,1.371 3.03,3.063 4.09,5.071 1.05,2.019 1.58,4.308 1.58,6.91 0,4.761 -1.7,8.148 -5.1,10.16 -3.4,2.019 -8.03,3.012 -13.91,3.012 -0.91,0 -2.26,0 -4.02,0 -1.76,0 -3.73,0 -5.92,0 -2.19,0 -4.47,-0.024 -6.85,-0.063 -2.39,-0.039 -4.67,-0.078 -6.86,-0.117 -2.19,-0.051 -4.16,-0.094 -5.92,-0.133 -1.75,-0.039 -3.1,-0.109 -4.02,-0.187 v -28.993 z m -8.16,-8.539 h -25.94 v -41.91 h -10.04 v 89.481 c 2.01,0.089 4.96,0.148 8.85,0.187 3.89,0.043 7.99,0.082 12.3,0.133 4.3,0.027 8.48,0.059 12.48,0.059 4.03,0 7.15,0 9.42,0 9.29,0 16.6,-1.731 21.97,-5.211 5.35,-3.481 8.03,-9.098 8.03,-16.879 0,-3.692 -0.67,-7.051 -2.01,-10.102 -1.35,-3.058 -3.19,-5.719 -5.53,-7.969 -2.35,-2.257 -5.08,-4.058 -8.22,-5.398 -3.13,-1.332 -6.51,-2.09 -10.1,-2.262 l 31.62,-42.039 h -12.91 l -29.92,41.91"
         style="fill:#ffffff;fill-opacity:1;fill-rule:nonzero;stroke:none"
         id="path128"
         inkscape:connector-curvature="0" /><path
         d="m 2815.62,323.281 c 2.85,0 6.09,-0.359 9.74,-1.07 3.65,-0.723 7.13,-2.199 10.43,-4.461 3.32,-2.262 6.23,-5.48 8.73,-9.66 2.52,-4.18 4.1,-9.711 4.79,-16.57 h -10.43 c -0.92,5.019 -2.23,8.98 -3.91,11.859 -1.66,2.891 -3.57,5.062 -5.72,6.519 -2.13,1.473 -4.42,2.411 -6.86,2.832 -2.44,0.411 -4.82,0.629 -7.17,0.629 -2.77,0 -5.35,-0.371 -7.75,-1.129 -2.38,-0.75 -4.47,-1.781 -6.29,-3.07 -1.8,-1.308 -3.22,-2.832 -4.28,-4.59 -1.05,-1.761 -1.56,-3.629 -1.56,-5.64 0,-2.758 0.78,-4.981 2.38,-6.649 1.61,-1.672 3.7,-3.101 6.29,-4.269 2.6,-1.172 5.55,-2.133 8.87,-2.891 3.32,-0.742 6.68,-1.57 10.12,-2.441 3.44,-0.879 6.81,-1.93 10.13,-3.149 3.31,-1.211 6.27,-2.769 8.87,-4.703 2.6,-1.918 4.69,-4.367 6.29,-7.34 1.58,-2.968 2.38,-6.629 2.38,-10.988 0,-4 -0.86,-7.648 -2.55,-10.91 -1.72,-3.27 -4.18,-6.039 -7.35,-8.34 -3.18,-2.309 -7.01,-4.09 -11.48,-5.34 -4.48,-1.262 -9.53,-1.879 -15.14,-1.879 -5.84,0 -10.86,0.93 -15.06,2.758 -4.18,1.84 -7.63,4.313 -10.35,7.41 -2.71,3.082 -4.71,6.711 -5.96,10.852 -1.25,4.148 -1.87,8.508 -1.87,13.109 h 10.04 c 0,-4.18 0.58,-7.769 1.76,-10.781 1.17,-3.02 2.79,-5.527 4.84,-7.539 2.05,-2.012 4.49,-3.5 7.3,-4.449 2.8,-0.961 5.88,-1.45 9.24,-1.45 3.77,0 7.25,0.289 10.39,0.879 3.15,0.59 5.84,1.52 8.11,2.828 2.26,1.293 4.02,2.973 5.29,5.024 1.25,2.039 1.88,4.527 1.88,7.457 0,4.269 -1.35,7.551 -4.03,9.859 -2.67,2.293 -6.05,4.114 -10.11,5.461 -4.09,1.332 -8.48,2.512 -13.23,3.512 -4.72,1 -9.14,2.359 -13.2,4.078 -4.06,1.711 -7.44,4.09 -10.12,7.152 -2.69,3.047 -4.02,7.297 -4.02,12.739 0,4.179 0.9,7.8 2.69,10.859 1.8,3.039 4.16,5.582 7.05,7.59 2.9,2 6.16,3.492 9.81,4.461 3.65,0.949 7.32,1.441 11.02,1.441"
         style="fill:#ffffff;fill-opacity:1;fill-rule:nonzero;stroke:none"
         id="path130"
         inkscape:connector-curvature="0" /><path
         d="m 2891.73,321.52 v -89.86 h -10.29 v 89.86 h 10.29"
         style="fill:#ffffff;fill-opacity:1;fill-rule:nonzero;stroke:none"
         id="path132"
         inkscape:connector-curvature="0" /><path
         d="m 2988.1,321.52 v -9.918 h -29.73 V 231.66 h -10.06 v 79.942 h -29.61 v 9.918 h 69.4"
         style="fill:#ffffff;fill-opacity:1;fill-rule:nonzero;stroke:none"
         id="path134"
         inkscape:connector-curvature="0" /><path
         d="m 3043.9,277.34 26.66,44.18 h 12.3 l -33.89,-53.84 v -36.02 h -10.03 v 36.02 l -34.15,53.84 h 12.56 l 26.55,-44.18"
         style="fill:#ffffff;fill-opacity:1;fill-rule:nonzero;stroke:none"
         id="path136"
         inkscape:connector-curvature="0" /><path
         d="m 3123.72,302.352 c 3.26,0 4.9,1.828 4.9,5.488 0,1.551 -0.35,2.691 -1.03,3.371 -0.69,0.68 -2.03,1.019 -4.03,1.019 -1.75,0 -3.39,-0.07 -4.9,-0.218 v -9.66 z m -3.01,-3.582 h -2.05 v -14.918 h -4.24 v 31.886 c 1.41,0.203 2.87,0.352 4.36,0.473 1.48,0.129 3.03,0.199 4.65,0.199 3.4,0 5.86,-0.66 7.34,-1.949 1.49,-1.301 2.23,-3.281 2.23,-5.961 0,-2.781 -0.72,-5.039 -2.15,-6.762 -1.45,-1.738 -3.26,-2.707 -5.45,-2.886 l 9.57,-15 h -5.12 z m 2.93,23.55 c -2.34,0 -4.67,-0.371 -6.99,-1.129 -2.32,-0.761 -4.41,-2.019 -6.29,-3.812 -1.87,-1.77 -3.4,-4.098 -4.57,-6.981 -1.17,-2.878 -1.76,-6.437 -1.76,-10.679 0,-4.09 0.57,-7.571 1.68,-10.418 1.12,-2.852 2.6,-5.192 4.44,-7 1.81,-1.801 3.9,-3.121 6.25,-3.942 2.34,-0.839 4.74,-1.25 7.24,-1.25 2.44,0 4.81,0.411 7.09,1.25 2.31,0.821 4.32,2.141 6.08,3.942 1.75,1.808 3.16,4.148 4.22,7.039 1.03,2.871 1.56,6.32 1.56,10.379 0,4.191 -0.53,7.73 -1.6,10.609 -1.08,2.871 -2.5,5.203 -4.26,6.981 -1.76,1.793 -3.77,3.062 -6.08,3.839 -2.28,0.782 -4.62,1.172 -7.01,1.172 z m 0,4.551 c 7.4,0 13.21,-2.25 17.39,-6.73 4.16,-4.5 6.25,-11.301 6.25,-20.422 0,-9.078 -2.06,-15.867 -6.16,-20.41 -4.1,-4.539 -9.92,-6.809 -17.48,-6.809 -3.65,0 -6.97,0.551 -9.96,1.641 -2.97,1.097 -5.51,2.769 -7.64,5.019 -2.12,2.25 -3.75,5.078 -4.9,8.488 -1.15,3.403 -1.72,7.43 -1.72,12.071 0,4.48 0.55,8.422 1.64,11.812 1.1,3.391 2.7,6.219 4.81,8.489 2.09,2.269 4.63,3.98 7.64,5.128 3,1.141 6.38,1.723 10.13,1.723"
         style="fill:#ffffff;fill-opacity:1;fill-rule:nonzero;stroke:none"
         id="path138"
         inkscape:connector-curvature="0" /></g></g></svg>